<svg width="22" height="22" fill="none" xmlns="http://www.w3.org/2000/svg"><g clip-path="url(#clip0_64_266)"><path d="M19.597 13.422a12.64 12.64 0 01-2.772-.694 2.693 2.693 0 00-2.845.613l-.974.979a15.998 15.998 0 01-5.33-5.357l.975-.98a2.73 2.73 0 00.607-2.86 12.815 12.815 0 01-.691-2.792A2.706 2.706 0 005.904 0H2.771A2.673 2.673 0 00.704.974a2.708 2.708 0 00-.614 1.99 21.395 21.395 0 003.273 9.296 21.001 21.001 0 006.4 6.435 21.162 21.162 0 009.22 3.294c.082.007.163.011.242.011h.012a2.706 2.706 0 002.684-2.719v-3.115a2.707 2.707 0 00-2.324-2.744zm1.076 2.737v3.125a1.452 1.452 0 01-1.566 1.454 19.909 19.909 0 01-8.67-3.101 19.755 19.755 0 01-6.024-6.057 20.123 20.123 0 01-3.08-8.739A1.448 1.448 0 012.77 1.257H5.9a1.45 1.45 0 011.431 1.244 14.09 14.09 0 00.76 3.064c.198.53.07 1.13-.323 1.53L6.452 8.417a.632.632 0 00-.102.756 17.247 17.247 0 006.448 6.481.62.62 0 00.749-.102l1.312-1.319a1.447 1.447 0 011.529-.327c.981.368 2.002.624 3.04.762a1.45 1.45 0 011.245 1.475v.016z" fill="#fff"/></g><defs><clipPath id="clip0_64_266"><path fill="#fff" d="M0 0h22v22H0z"/></clipPath></defs></svg>