<svg width="22" height="18" fill="none" xmlns="http://www.w3.org/2000/svg"><g clip-path="url(#clip0_64_278)"><path d="M22 2.78A2.698 2.698 0 0019.3.105H2.7A2.698 2.698 0 000 2.78v12.423a2.698 2.698 0 002.7 2.692h16.6c1.49 0 2.7-1.208 2.7-2.692V2.78zM2.7 1.354h16.6c.696 0 1.279.49 1.419 1.14L11 9.273 1.281 2.495c.14-.65.723-1.14 1.418-1.14zm16.6 15.29H2.7a1.45 1.45 0 01-1.452-1.443V3.994l9.395 6.552a.624.624 0 00.714 0l9.395-6.552v11.208c0 .796-.651 1.443-1.451 1.443z" fill="#fff"/></g><defs><clipPath id="clip0_64_278"><path fill="#fff" d="M0 0h22v18H0z"/></clipPath></defs></svg>