<svg width="22" height="28" fill="none" xmlns="http://www.w3.org/2000/svg"><g clip-path="url(#clip0_64_269)" fill="#fff"><path d="M11 28a.719.719 0 01-.415-.132c-.107-.076-2.663-1.884-5.254-4.768C1.794 19.163 0 15.293 0 11.598 0 5.203 4.935 0 11 0s11 5.203 11 11.598c0 3.695-1.794 7.565-5.331 11.502-2.592 2.884-5.148 4.692-5.255 4.768A.719.719 0 0111 28zm0-26.425c-5.242 0-9.506 4.496-9.506 10.023 0 6.947 7.626 13.212 9.506 14.651 1.88-1.439 9.506-7.704 9.506-14.651 0-5.527-4.264-10.023-9.506-10.023z"/><path d="M11 15.989c-2.297 0-4.165-1.97-4.165-4.391 0-2.421 1.868-4.391 4.165-4.391 2.296 0 4.164 1.97 4.164 4.39 0 2.422-1.868 4.392-4.164 4.392zm0-7.207c-1.473 0-2.671 1.263-2.671 2.816 0 1.552 1.198 2.816 2.67 2.816 1.473 0 2.672-1.264 2.672-2.816 0-1.553-1.199-2.816-2.671-2.816z"/></g><defs><clipPath id="clip0_64_269"><path fill="#fff" d="M0 0h22v28H0z"/></clipPath></defs></svg>