<svg width="49" height="49" viewBox="0 0 49 49" fill="none" xmlns="http://www.w3.org/2000/svg">
<g clip-path="url(#clip0_106_11015)">
<path fill-rule="evenodd" clip-rule="evenodd" d="M21.6696 0C25.4633 0.000875845 29.184 1.04326 32.426 3.0135C35.6792 4.98686 38.3474 7.81906 40.1484 11.2099C41.9514 14.6103 42.817 18.4294 42.6563 22.275C42.4993 26.1182 41.3208 29.8502 39.2419 33.0866L48.3319 43.1681L42.0656 49L33.3009 39.1697C30.5818 41.0143 27.4639 42.1875 24.2034 42.593C20.9484 42.9957 17.6444 42.6174 14.5646 41.4896C11.4705 40.3546 8.68744 38.5061 6.44131 36.0943C4.17805 33.6647 2.50928 30.7431 1.56626 27.5594C0.617678 24.3626 0.417101 20.9904 0.980042 17.7037C1.5395 14.4252 2.84939 11.3205 4.80739 8.63202C6.75107 5.96258 9.29422 3.78668 12.2322 2.27939C15.1528 0.782158 18.3876 0.000872137 21.6696 0ZM34.8595 7.94468C31.8037 4.84254 27.7853 2.91461 23.4893 2.49009C19.1933 2.06513 14.8858 3.16941 11.2999 5.61495C7.71398 8.0605 5.07243 11.6954 3.82472 15.9009C2.57692 20.1084 2.79971 24.6154 4.45637 28.6793C6.11257 32.7365 9.09934 36.0832 12.908 38.1501C16.7049 40.215 21.1083 40.8749 25.3437 40.0138C29.576 39.1528 33.3842 36.8244 36.1193 33.4256C38.8539 30.0268 40.3466 25.7682 40.3422 21.3747C40.344 18.8812 39.8606 16.4111 38.919 14.1022C37.9821 11.8036 36.6029 9.71153 34.8595 7.94468Z" fill="#555555"/>
<path d="M14.0402 30.2997V22.833H10.4766V30.2997C10.4775 30.3899 10.5133 30.4762 10.5763 30.5407C10.6388 30.6046 10.724 30.6411 10.8133 30.6423H13.7034C13.7925 30.6414 13.8772 30.6049 13.9404 30.5407C14.0035 30.4762 14.0392 30.3899 14.0402 30.2997Z" fill="#F3E03B"/>
<path d="M18.1332 13.569L10.4688 20.3934H14.7295L18.1524 17.3122L21.0505 20.6009C22.77 22.3471 23.5883 22.3151 25.3037 20.5689C26.6477 19.1938 29.8549 16.1085 31.2136 14.7094L33.117 16.6703V10.6909L27.3127 10.7426L29.2709 12.736L23.1499 18.9946C21.4737 17.3041 19.8215 15.2591 18.1332 13.569Z" fill="#F3E03B"/>
<path d="M31.5379 30.2998V18.5754L31.5259 18.5558C31.3998 18.4639 31.2831 18.3598 31.1775 18.2449L29.8189 19.5924L27.9658 21.4143V30.2998C27.9658 30.3897 28.001 30.4766 28.0634 30.5403C28.0939 30.5721 28.1305 30.5975 28.171 30.6151C28.2114 30.6327 28.2549 30.6421 28.299 30.6428H31.2012C31.2902 30.6414 31.3749 30.6049 31.4381 30.5408C31.5012 30.4763 31.5369 30.3899 31.5379 30.2998Z" fill="#F3E03B"/>
<path d="M25.6948 30.2998V23.4871C25.1885 23.8589 24.6077 24.1169 23.9923 24.2434C23.3785 24.3693 22.7447 24.3601 22.1348 24.2167V30.2998C22.1348 30.3898 22.1704 30.4767 22.2323 30.5404C22.2629 30.5722 22.2995 30.5976 22.3399 30.6152C22.3803 30.6328 22.4239 30.6422 22.468 30.6428H25.3621C25.4063 30.6422 25.4499 30.6328 25.4904 30.6153C25.5309 30.5977 25.5676 30.5722 25.5982 30.5404C25.6604 30.4758 25.695 30.3895 25.6948 30.2998Z" fill="#F3E03B"/>
<path d="M19.8715 22.9458V22.9329L19.8795 22.9529L19.8715 22.9458V30.2998C19.8715 30.3907 19.8358 30.478 19.773 30.5421C19.7419 30.5738 19.7049 30.599 19.6639 30.6162C19.623 30.6334 19.5791 30.6423 19.5347 30.6424H16.6366C16.5473 30.6412 16.462 30.6047 16.3996 30.5408C16.3365 30.4763 16.3008 30.39 16.2998 30.2998V22.3271C16.3599 22.2825 16.4174 22.2349 16.4722 22.1836L17.9213 20.8762L19.0959 22.1992L19.1863 22.295C19.4065 22.5204 19.6351 22.7375 19.8715 22.9458Z" fill="#F3E03B"/>
</g>
<defs>
<clipPath id="clip0_106_11015">
<rect width="49" height="49" fill="white"/>
</clipPath>
</defs>
</svg>
