<svg width="60" height="47" viewBox="0 0 60 47" fill="none" xmlns="http://www.w3.org/2000/svg">
<g clip-path="url(#clip0_104_10963)">
<path fill-rule="evenodd" clip-rule="evenodd" d="M27.2071 8.30211L26.8708 8.33176C24.127 8.59529 21.4609 9.59683 19.2581 11.3117C16.7089 13.2902 14.7741 16.2512 14.0288 20.1739L13.7944 21.4004L12.5763 21.6153C11.3823 21.8251 10.3147 22.1132 9.37923 22.4797C8.47281 22.8316 7.66375 23.2664 6.95652 23.7795C6.41253 24.1725 5.91987 24.6321 5.49002 25.1475C4.20817 26.6862 3.6134 28.6159 3.62795 30.5703C3.64894 32.5934 4.29418 34.5605 5.47548 36.203C5.91832 36.8181 6.43551 37.376 7.01527 37.8642L7.02981 37.8737L5.7239 41.3573C5.37756 41.1279 5.04129 40.8783 4.72964 40.6148C3.92115 39.9387 3.20066 39.1639 2.58501 38.3085C0.952338 36.0614 0.0750153 33.3159 0.0559917 30.5798C0.0364086 27.8147 0.894148 25.0641 2.74615 22.8361C3.36546 22.0921 4.07605 21.4291 4.86113 20.8627C5.80167 20.179 6.87874 19.6021 8.09737 19.1282C8.96994 18.791 9.86561 18.5169 10.7775 18.308C11.8501 14.0377 14.1357 10.75 17.0748 8.46828C19.8232 6.33373 23.1327 5.08768 26.5396 4.76036C27.581 4.6579 28.6291 4.6433 29.6729 4.71672C29.4459 4.83711 29.2292 4.97597 29.025 5.13188L29.0104 5.14139C28.03 5.89067 27.3853 6.99692 27.2166 8.2193L27.2071 8.30211ZM21.4273 44.2735H15.6458L14.8177 47H9.60751L15.8226 30.4528H21.4077L27.5977 47H22.256L21.4279 44.2735H21.4273ZM20.3452 40.6881L18.5419 34.7421L16.7335 40.6881H20.3452ZM29.1906 30.4528H37.6757C39.5227 30.4528 40.9119 30.8926 41.8279 31.7722C42.7444 32.6512 43.2076 33.9118 43.2076 35.5388C43.2076 37.2096 42.7007 38.5188 41.7014 39.4616C40.6976 40.4044 39.1623 40.8733 37.1055 40.8733H34.308V47H29.1906V30.4528ZM34.308 37.5223H35.5652C36.555 37.5223 37.2516 37.3511 37.6511 37.0042C38.0511 36.6624 38.2509 36.2226 38.2509 35.6849C38.2509 35.1673 38.0752 34.7281 37.7294 34.3661C37.3831 34.0046 36.7301 33.8234 35.77 33.8234H34.308V37.5223ZM45.2689 30.4528H50.3862V47H45.2689V30.4528ZM54.6458 17.0916C55.1807 17.5099 55.681 17.9706 56.142 18.4691C56.6872 19.0613 57.1811 19.6986 57.6186 20.3743C59.1785 22.7779 59.9775 25.9873 59.9434 29.129C59.9092 32.212 59.0811 35.2798 57.3847 37.5369C56.9741 38.0799 56.5212 38.5895 56.0301 39.061V31.9479C56.2393 31.0342 56.3468 30.0718 56.3563 29.0999C56.3859 26.6229 55.7817 24.1359 54.6067 22.3286C54.2835 21.8266 53.9167 21.3541 53.5106 20.9164C53.2016 20.582 52.8676 20.2717 52.5113 19.9882C52.5449 19.8416 52.5745 19.695 52.5941 19.5484C52.6333 19.2457 52.6478 18.938 52.6277 18.6302C53.0222 18.476 53.3931 18.2669 53.7294 18.0092L53.7445 17.9997C54.0839 17.7381 54.387 17.4331 54.6458 17.0916Z" fill="#DBDBDB"/>
<path fill-rule="evenodd" clip-rule="evenodd" d="M47.7313 2.64484L49.3102 4.23163C49.5097 4.433 49.6216 4.70496 49.6216 4.98838C49.6216 5.27179 49.5097 5.54375 49.3102 5.74512L48.0385 7.02306C48.3939 7.68866 48.6592 8.39857 48.8274 9.13412H50.4701C50.7516 9.13803 51.0196 9.25218 51.2176 9.45304C51.4152 9.65335 51.5265 9.92416 51.5282 10.2067V12.4498C51.5283 12.7335 51.4161 13.0056 51.216 13.2066C51.0159 13.4077 50.7443 13.5212 50.4606 13.5224H48.6668C48.4492 14.2446 48.1363 14.9346 47.7363 15.5742L48.9012 16.7447C49.1011 16.9468 49.2132 17.2196 49.2132 17.5039C49.2132 17.7882 49.1011 18.061 48.9012 18.2632L47.3318 19.8298C47.1313 20.0299 46.8597 20.1423 46.5764 20.1423C46.2932 20.1423 46.0216 20.0299 45.8211 19.8298L44.5538 18.5519C43.8905 18.909 43.1824 19.1758 42.4483 19.3453V21.0009C42.4472 21.2847 42.3345 21.5566 42.1344 21.7579C41.9349 21.9588 41.6639 22.0722 41.3808 22.0735H39.1483C38.8654 22.072 38.5946 21.9586 38.3952 21.7579C38.1954 21.5566 38.0828 21.2846 38.0819 21.0009V19.2133C37.3627 18.9932 36.676 18.6786 36.0396 18.2777L34.8747 19.4488C34.6742 19.6488 34.4025 19.761 34.1194 19.761C33.8362 19.761 33.5645 19.6488 33.364 19.4488L31.7895 17.8721C31.59 17.6708 31.478 17.3988 31.478 17.1153C31.478 16.8319 31.59 16.5599 31.7895 16.3586L33.0568 15.0801C32.7052 14.415 32.4413 13.7071 32.2718 12.9741H30.6246C30.3417 12.9726 30.0709 12.8591 29.8715 12.6585C29.6715 12.4572 29.5587 12.1853 29.5576 11.9015V9.64384C29.5576 9.35977 29.6698 9.08719 29.8697 8.88538C30.0696 8.68357 30.3411 8.56886 30.6252 8.56621H32.4229C32.6386 7.84318 32.9519 7.15292 33.3539 6.51446L32.189 5.34339C32.038 5.19367 31.9352 5.00229 31.8936 4.79376C31.8521 4.58524 31.8737 4.36905 31.9557 4.17288C32.01 4.04251 32.0894 3.92445 32.189 3.82486L33.7635 2.23807C33.964 2.03812 34.2357 1.92584 34.5189 1.92584C34.802 1.92584 35.0737 2.03812 35.2742 2.23807L36.546 3.51657C37.2078 3.1595 37.9144 2.89267 38.647 2.72317V1.07259C38.6479 0.78889 38.7605 0.516953 38.9603 0.315568C39.16 0.114669 39.4313 0.00118247 39.7145 0H41.947C42.2299 0.00135595 42.5007 0.114839 42.7001 0.315568C42.8999 0.516434 43.0129 0.78836 43.014 1.07259V2.87983C43.7335 3.09861 44.4201 3.41361 45.0562 3.81535L46.2212 2.64484C46.4216 2.44475 46.6933 2.33238 46.9765 2.33238C47.2597 2.33238 47.5308 2.44475 47.7313 2.64484ZM40.537 15.4706C41.1311 15.4773 41.7205 15.366 42.2713 15.1433C42.822 14.9205 43.3231 14.5907 43.7456 14.173C44.168 13.7552 44.5033 13.2579 44.7322 12.7096C44.9611 12.1614 45.079 11.5732 45.079 10.9791C45.079 10.385 44.9611 9.79685 44.7322 9.24861C44.5033 8.70038 44.168 8.203 43.7456 7.78527C43.3231 7.36753 42.822 7.03774 42.2713 6.815C41.7205 6.59225 41.1311 6.48097 40.537 6.4876C39.3545 6.5008 38.2248 6.97982 37.3933 7.82071C36.5617 8.6616 36.0953 9.79651 36.0953 10.9791C36.0953 12.1617 36.5617 13.2966 37.3933 14.1375C38.2248 14.9784 39.3545 15.4575 40.537 15.4706Z" fill="#F3E03B"/>
</g>
<defs>
<clipPath id="clip0_104_10963">
<rect width="60" height="47" fill="white"/>
</clipPath>
</defs>
</svg>
