<svg width="65" height="54" viewBox="0 0 65 54" fill="none" xmlns="http://www.w3.org/2000/svg">
<path fill-rule="evenodd" clip-rule="evenodd" d="M55.3038 13.6612L57.0124 15.3784C57.2281 15.5963 57.349 15.8904 57.349 16.197C57.349 16.5035 57.2281 16.7976 57.0124 17.0155L55.6363 18.399C56.0209 19.1192 56.3081 19.8872 56.4906 20.6829H58.2675C58.5718 20.6871 58.8623 20.8111 59.0758 21.028C59.2901 21.2451 59.4106 21.5378 59.4117 21.8437V24.2708C59.4117 24.5783 59.2901 24.8733 59.0735 25.091C58.9666 25.1987 58.8394 25.2842 58.6993 25.3425C58.5593 25.4008 58.409 25.4309 58.2573 25.431H56.3167C56.081 26.2127 55.7423 26.9595 55.3095 27.6518L56.5696 28.9182C56.7859 29.1369 56.9072 29.432 56.9072 29.7396C56.9072 30.0471 56.7859 30.3423 56.5696 30.561L54.8718 32.2566C54.6548 32.473 54.3609 32.5946 54.0544 32.5946C53.7479 32.5946 53.4539 32.473 53.237 32.2566L51.866 30.8736C51.1482 31.2599 50.382 31.5486 49.5877 31.7319V33.523C49.5864 33.8301 49.4643 34.1243 49.2478 34.3421C49.0318 34.5598 48.7385 34.6826 48.4327 34.6837H46.0175C45.7114 34.6823 45.4183 34.5597 45.2024 34.3427C44.9864 34.125 44.8641 33.8311 44.8624 33.523V31.5892C44.0844 31.3511 43.3414 31.0106 42.653 30.5769L41.3928 31.8433C41.1758 32.0598 40.8819 32.1813 40.5754 32.1813C40.2689 32.1813 39.975 32.0598 39.758 31.8433L38.0545 30.1369C37.8388 29.9191 37.7179 29.6249 37.7179 29.3184C37.7179 29.0119 37.8388 28.7177 38.0545 28.4999L39.4255 27.1163C39.0452 26.3966 38.76 25.6306 38.5768 24.8375H36.7937C36.4876 24.8361 36.1945 24.7134 35.9786 24.4965C35.7626 24.2788 35.6404 23.9849 35.6387 23.6774V21.2343C35.6387 20.9257 35.7603 20.6301 35.9769 20.4118C36.0837 20.3036 36.2108 20.2175 36.351 20.1586C36.4912 20.0997 36.6416 20.0691 36.7937 20.0685H38.7394C38.9727 19.2859 39.3116 18.5387 39.7467 17.8477L38.4865 16.5812C38.3782 16.4736 38.2923 16.3457 38.2337 16.2047C38.1752 16.0637 38.1452 15.9125 38.1454 15.7598C38.1454 15.6072 38.1755 15.4561 38.2341 15.3152C38.2926 15.1742 38.3784 15.0462 38.4865 14.9385L40.19 13.2218C40.407 13.0054 40.7009 12.8838 41.0074 12.8838C41.3139 12.8838 41.6078 13.0054 41.8248 13.2218L43.2004 14.6048C43.9165 14.2185 44.6812 13.9298 45.4741 13.7465V11.9605C45.4751 11.6535 45.597 11.3592 45.8134 11.1414C46.0294 10.9237 46.3227 10.8015 46.6285 10.7998H49.0443C49.3502 10.8014 49.6431 10.924 49.8589 11.1409C50.0749 11.3586 50.1976 11.653 50.1988 11.9605V13.9159C50.9772 14.1528 51.7203 14.4931 52.4082 14.9277L53.669 13.6612C53.8859 13.445 54.1798 13.3235 54.4861 13.3235C54.7924 13.3235 55.0868 13.445 55.3038 13.6612ZM47.5192 27.5398C48.8082 27.5398 50.0444 27.0278 50.9558 26.1163C51.8672 25.2049 52.3792 23.9688 52.3792 22.6798C52.3792 21.3909 51.8672 20.1547 50.9558 19.2433C50.0444 18.3318 48.8082 17.8198 47.5192 17.8198C46.2303 17.8198 44.9941 18.3318 44.0827 19.2433C43.1713 20.1547 42.6592 21.3909 42.6592 22.6798C42.6592 23.9688 43.1713 25.2049 44.0827 26.1163C44.9941 27.0278 46.2303 27.5398 47.5192 27.5398Z" fill="#F3E03B"/>
<path fill-rule="evenodd" clip-rule="evenodd" d="M1.76155 0H63.0379C63.5052 0.00170287 63.9527 0.18876 64.2822 0.520105C64.6125 0.8524 64.7983 1.30156 64.7994 1.77006V42.5747C64.7983 43.0432 64.6124 43.4924 64.2822 43.8247C63.9527 44.1561 63.5052 44.3432 63.0379 44.3448H1.76155C1.52928 44.3442 1.29943 44.2975 1.08528 44.2076C0.871131 44.1176 0.676921 43.9861 0.513865 43.8207C0.183053 43.4865 -0.0017361 43.0348 1.22948e-05 42.5645V1.75869C0.00397892 1.29199 0.191178 0.845528 0.521254 0.515558C0.850405 0.186694 1.29627 0.00136207 1.76155 0ZM6.65509 12.2995H11.2115C11.2916 12.3016 11.3693 12.3276 11.4343 12.3744C11.4994 12.4211 11.5489 12.4863 11.5765 12.5615C11.5951 12.6117 11.6036 12.665 11.6015 12.7184V14.2549C11.6 14.3604 11.5572 14.4612 11.4823 14.5356C11.4074 14.61 11.3063 14.652 11.2007 14.6528H6.65509C6.5492 14.6531 6.44753 14.6113 6.37239 14.5367C6.29726 14.4621 6.2548 14.3607 6.25435 14.2549V12.7184C6.25583 12.6129 6.29862 12.5121 6.37353 12.4377C6.44845 12.3633 6.54952 12.3213 6.65509 12.3205V12.2995ZM6.65509 25.214H22.6021C22.708 25.2137 22.8097 25.2555 22.8848 25.3301C22.96 25.4047 23.0024 25.506 23.0029 25.6119V27.1694C23.0014 27.2749 22.9586 27.3757 22.8837 27.4501C22.8088 27.5245 22.7077 27.5666 22.6021 27.5673H6.65509C6.5492 27.5676 6.44753 27.5259 6.37239 27.4513C6.29726 27.3766 6.2548 27.2753 6.25435 27.1694V25.6119C6.25583 25.5064 6.29862 25.4056 6.37353 25.3312C6.44845 25.2568 6.54952 25.2148 6.65509 25.214ZM6.65509 18.6374H16.5269C16.6333 18.6386 16.7349 18.6816 16.8099 18.7571C16.8849 18.8326 16.9271 18.9346 16.9276 19.041V20.5984C16.9247 20.7035 16.8815 20.8035 16.8068 20.8776C16.7322 20.9517 16.632 20.9942 16.5269 20.9963H6.65509C6.54925 20.9965 6.44766 20.9547 6.37256 20.8801C6.29745 20.8056 6.25495 20.7043 6.25435 20.5984V19.041C6.25435 18.9344 6.29648 18.8322 6.37155 18.7566C6.44662 18.681 6.54854 18.6381 6.65509 18.6374ZM6.65509 31.785H29.4363C29.5422 31.7862 29.6433 31.8293 29.7175 31.905C29.7917 31.9806 29.8328 32.0826 29.8319 32.1885V33.746C29.8304 33.8507 29.7884 33.9507 29.7145 34.025C29.6407 34.0992 29.5409 34.1419 29.4363 34.1439H6.65509C6.5492 34.1442 6.44753 34.1025 6.37239 34.0279C6.29726 33.9533 6.2548 33.8519 6.25435 33.746V32.1885C6.25435 32.082 6.29648 31.9798 6.37155 31.9042C6.44662 31.8286 6.54854 31.7857 6.65509 31.785ZM24.4109 46.7771H40.3892C40.4312 49.5538 41.5703 52.0446 44.6552 54H20.1449C22.6289 52.193 24.4211 50.004 24.4109 46.7771ZM62.4956 6.17362V37.5402C62.4956 37.962 62.3291 38.3662 62.0324 38.6646C61.8857 38.812 61.7114 38.929 61.5195 39.0089C61.3275 39.0887 61.1216 39.1299 60.9137 39.1301H3.86528C3.44993 39.123 3.05412 38.9525 2.76368 38.6555C2.47228 38.3574 2.30924 37.9571 2.30951 37.5402V6.17362H16.6326V8.22448C16.6326 8.50585 16.7434 8.77528 16.9412 8.97423C17.139 9.17318 17.4073 9.28459 17.687 9.28459H19.2956C19.4533 9.99762 19.7032 10.6871 20.0391 11.3355L18.8051 12.5803C18.613 12.7786 18.5057 13.0438 18.5057 13.3198C18.5057 13.5958 18.613 13.8611 18.8051 14.0593L20.3398 15.6066C20.5366 15.8004 20.8017 15.9091 21.0779 15.9091C21.3541 15.9091 21.6193 15.8004 21.816 15.6066L22.95 14.4618C23.5727 14.8518 24.2449 15.1566 24.9486 15.3678V17.1277C24.9486 17.4085 25.06 17.6779 25.2578 17.8768C25.455 18.0758 25.7239 18.1872 26.0036 18.1872H28.1812C28.3198 18.1872 28.4571 18.1597 28.5851 18.1065C28.7131 18.0532 28.8292 17.9752 28.927 17.8768C29.1251 17.6776 29.2362 17.4081 29.2362 17.1271V15.5378C29.9519 15.3748 30.642 15.1145 31.287 14.7642L32.5262 16.009C32.7227 16.2015 32.9869 16.3093 33.262 16.3093C33.5371 16.3093 33.8013 16.2015 33.9978 16.009L35.5377 14.4618C35.7296 14.2635 35.8368 13.9984 35.8368 13.7225C35.8368 13.4466 35.7296 13.1816 35.5377 12.9833L34.4037 11.8442C34.7927 11.2192 35.0978 10.5457 35.3109 9.84107H37.0616C37.2003 9.84098 37.3376 9.81346 37.4656 9.7601C37.5936 9.70673 37.7097 9.62859 37.8074 9.53015C38.0052 9.3312 38.1166 9.06234 38.1166 8.78097V6.59255C38.116 6.44872 38.0872 6.3064 38.0319 6.17362H62.4956ZM31.4508 6.17362C31.6432 6.81628 31.6834 7.49491 31.5683 8.1558C31.4532 8.8167 31.1858 9.44174 30.7874 9.98147C30.3897 10.5197 29.8715 10.9573 29.2743 11.2593C28.374 11.7146 27.3415 11.8361 26.3601 11.6021C25.3788 11.3682 24.5121 10.794 23.9141 9.98147C23.5156 9.44174 23.2483 8.8167 23.1332 8.1558C23.018 7.49491 23.0583 6.81628 23.2507 6.17362H31.4508ZM60.0116 2.60735C60.2206 2.60717 60.4249 2.66926 60.5984 2.78569C60.7719 2.90212 60.9068 3.0676 60.9859 3.26103C61.0459 3.40557 61.0732 3.56161 61.0657 3.71794C61.0583 3.87426 61.0163 4.027 60.9429 4.16519C60.8694 4.30338 60.7663 4.42359 60.6408 4.51718C60.5154 4.61078 60.3708 4.67544 60.2174 4.70653C60.0125 4.74768 59.8001 4.72677 59.6072 4.64646C59.4143 4.56616 59.2497 4.43013 59.1346 4.25577C58.9996 4.05152 58.939 3.80708 58.9629 3.56345C58.9868 3.31982 59.0938 3.09183 59.2659 2.91771C59.3636 2.81937 59.4798 2.74133 59.6078 2.68806C59.7358 2.6348 59.873 2.60737 60.0116 2.60735ZM52.924 2.60735C53.1331 2.60706 53.3375 2.66909 53.5111 2.78553C53.6847 2.90196 53.8197 3.06751 53.8988 3.26103C53.9786 3.45481 53.9995 3.66784 53.9587 3.8734C53.918 4.07897 53.8174 4.26794 53.6698 4.41663C53.5225 4.56446 53.3346 4.6652 53.13 4.70609C52.9254 4.74697 52.7132 4.72615 52.5204 4.64627C52.3601 4.57881 52.2187 4.47301 52.1088 4.33818C51.9989 4.20334 51.9237 4.04359 51.8899 3.87293C51.8561 3.70228 51.8648 3.52594 51.915 3.35939C51.9653 3.19284 52.0557 3.04118 52.1782 2.91771C52.2759 2.81937 52.3921 2.74133 52.5201 2.68806C52.6481 2.6348 52.7854 2.60737 52.924 2.60735ZM56.4681 2.60735C56.6771 2.60717 56.8813 2.66926 57.0549 2.78569C57.2284 2.90212 57.3633 3.0676 57.4424 3.26103C57.522 3.45471 57.5427 3.66755 57.5021 3.87297C57.4615 4.07838 57.3612 4.26728 57.2139 4.41606C57.0666 4.56385 56.8787 4.66462 56.6741 4.7056C56.4695 4.74658 56.2574 4.72593 56.0645 4.64627C55.8712 4.56589 55.706 4.42989 55.59 4.25553C55.4741 4.08117 55.4125 3.87629 55.4131 3.66688C55.4131 3.38608 55.5245 3.11665 55.7223 2.91771C55.82 2.81937 55.9362 2.74133 56.0642 2.68806C56.1922 2.6348 56.3295 2.60737 56.4681 2.60735Z" fill="#555555"/>
</svg>
