<svg width="49" height="49" viewBox="0 0 49 49" fill="none" xmlns="http://www.w3.org/2000/svg">
<g clip-path="url(#clip0_106_11022)">
<path fill-rule="evenodd" clip-rule="evenodd" d="M1.23692 36.2726H5.8078C5.65251 36.1092 5.56583 35.8924 5.56566 35.667V11.0821C5.56566 10.6019 5.95235 10.2083 6.42439 10.2083H42.3491C42.8212 10.2083 43.2079 10.6019 43.2079 11.0821V35.667C43.2079 35.9018 43.1148 36.115 42.9657 36.2726H47.762C47.9251 36.2728 48.0865 36.3055 48.2368 36.3689C48.387 36.4323 48.5231 36.525 48.6371 36.6417C48.8109 36.8191 48.9289 37.0436 48.9765 37.2873C49.0242 37.5311 48.9995 37.7835 48.9053 38.0133C48.8434 38.1656 48.7523 38.3044 48.6371 38.4216C48.5232 38.5384 48.3871 38.6313 48.2368 38.6948C48.0866 38.7584 47.9251 38.7913 47.762 38.7916H1.23733C1.07418 38.7913 0.912741 38.7584 0.762474 38.6949C0.612207 38.6314 0.476144 38.5385 0.362269 38.4216C0.247028 38.3044 0.155886 38.1656 0.0939942 38.0133C0.000504557 37.7834 -0.0239104 37.5311 0.0237381 37.2875C0.0713867 37.0439 0.189031 36.8195 0.362269 36.6417C0.476184 36.525 0.612273 36.4322 0.762543 36.3688C0.912813 36.3054 1.07383 36.2727 1.23692 36.2726ZM32.443 27.8707C32.4577 27.8038 32.4854 27.7405 32.5247 27.6844C32.5639 27.6284 32.6139 27.5806 32.6717 27.5439C32.7296 27.5073 32.7941 27.4824 32.8615 27.4708C32.929 27.4592 32.9981 27.461 33.0649 27.4763C33.3438 27.5424 33.5169 27.8258 33.4528 28.11L32.4393 32.5265C32.4085 32.662 32.3255 32.7799 32.2082 32.8544C32.1215 32.9096 32.0201 32.9374 31.9174 32.934C31.8147 32.9307 31.7154 32.8964 31.6324 32.8356C31.5766 32.7951 31.5293 32.744 31.4934 32.6851C31.4574 32.6262 31.4335 32.5608 31.423 32.4926C31.4118 32.4243 31.414 32.3544 31.4295 32.2868L32.443 27.8707ZM9.35867 18.2753C9.02179 18.2753 8.74903 17.9976 8.74903 17.6546C8.74903 17.3128 9.02179 17.0344 9.35867 17.0344H24.7149C25.0509 17.0344 25.3237 17.3128 25.3237 17.655C25.3237 17.998 25.0509 18.2753 24.7153 18.2753H9.35867ZM9.35867 22.2271C9.02179 22.2271 8.74903 21.9482 8.74903 21.6065C8.74903 21.2635 9.02179 20.9858 9.35867 20.9858H23.5768C23.9129 20.9858 24.1857 21.2635 24.1857 21.6065C24.1857 21.9482 23.9129 22.2271 23.5772 22.2271H9.35867ZM9.35867 30.1296C9.02179 30.1296 8.74903 29.8519 8.74903 29.5089C8.74903 29.1659 9.02179 28.8883 9.35867 28.8883H19.3718C19.7079 28.8883 19.9815 29.1659 19.9815 29.5089C19.9815 29.8519 19.7079 30.1296 19.3718 30.1296H9.35867ZM9.35867 26.1778C9.19697 26.1778 9.0418 26.1124 8.92788 25.9961C8.81337 25.879 8.74931 25.7217 8.74944 25.5579C8.74944 25.3934 8.81354 25.2353 8.92788 25.1194C9.04221 25.003 9.19697 24.9377 9.35867 24.9377H20.3616C20.5229 24.9377 20.6781 25.003 20.792 25.1194C20.9063 25.2357 20.9704 25.3929 20.9704 25.5579C20.9704 25.7221 20.9063 25.8797 20.792 25.9961C20.6777 26.1124 20.5229 26.1778 20.3616 26.1778H9.35867ZM30.7145 31.3832C30.8176 31.4764 30.8804 31.6061 30.8896 31.7448C30.8987 31.8836 30.8535 32.0204 30.7635 32.1264C30.7192 32.1782 30.665 32.2206 30.6042 32.2512C30.5433 32.2818 30.4769 32.2999 30.4089 32.3046C30.3409 32.3092 30.2727 32.3002 30.2082 32.2782C30.1437 32.2562 30.0843 32.2215 30.0334 32.1762L28.26 30.5951C28.1568 30.5019 28.0939 30.3722 28.0848 30.2335C28.0756 30.0947 28.1209 29.9579 28.211 29.8519L28.2616 29.8001L30.0334 28.2211C30.0842 28.1755 30.1436 28.1406 30.2081 28.1184C30.2726 28.0962 30.3409 28.0871 30.409 28.0918C30.477 28.0964 30.5435 28.1147 30.6044 28.1454C30.6653 28.1762 30.7194 28.2188 30.7635 28.2709C30.8535 28.3768 30.8987 28.5137 30.8896 28.6524C30.8804 28.7911 30.8176 28.9208 30.7145 29.014L29.3862 30.1982L30.7145 31.3832ZM34.9685 32.1758C34.9177 32.2211 34.8583 32.2559 34.7938 32.278C34.7293 32.3001 34.6611 32.3091 34.5931 32.3045C34.5251 32.2999 34.4587 32.2818 34.3978 32.2512C34.3369 32.2206 34.2827 32.1782 34.2384 32.1264C34.1484 32.0204 34.1032 31.8836 34.1123 31.7448C34.1215 31.6061 34.1843 31.4764 34.2874 31.3832L35.6157 30.1986L34.287 29.0145C34.1839 28.9212 34.1212 28.7914 34.1121 28.6527C34.1031 28.514 34.1484 28.3772 34.2384 28.2713C34.2825 28.2192 34.3366 28.1765 34.3975 28.1457C34.4584 28.1149 34.5248 28.0967 34.5929 28.092C34.6609 28.0873 34.7292 28.0963 34.7938 28.1185C34.8583 28.1406 34.9177 28.1755 34.9685 28.2211L36.7399 29.8001L36.7909 29.8519C36.9787 30.07 36.9563 30.4032 36.7411 30.5951L34.9685 32.1758ZM41.8632 13.8396H7.0328V35.2117H41.8632V13.8396ZM11.2611 11.6158C11.5469 11.6158 11.778 11.8514 11.778 12.1417C11.778 12.4316 11.5473 12.6676 11.2611 12.6676C11.1228 12.6663 10.9907 12.6102 10.8938 12.5116C10.7969 12.413 10.7431 12.28 10.7441 12.1417C10.7441 11.8518 10.9761 11.6158 11.2611 11.6158ZM9.45504 11.6158C9.74046 11.6158 9.97117 11.8514 9.97117 12.1417C9.97117 12.4316 9.74046 12.6676 9.45504 12.6676C9.1692 12.6676 8.93727 12.432 8.93727 12.1417C8.93727 11.8518 9.16879 11.6158 9.45504 11.6158ZM7.64816 11.6158C7.93359 11.6158 8.16511 11.8514 8.16511 12.1417C8.16511 12.4316 7.93359 12.6676 7.64816 12.6676C7.36233 12.6676 7.13162 12.432 7.13162 12.1417C7.13162 11.8518 7.36192 11.6158 7.64816 11.6158ZM23.0901 36.8928H25.9092C26.1734 36.8928 26.3898 37.1129 26.3898 37.3816C26.3898 37.6507 26.1734 37.8708 25.9092 37.8708H23.0901C22.8259 37.8708 22.6095 37.6503 22.6095 37.3816C22.6095 37.1129 22.8259 36.8928 23.0901 36.8928Z" fill="#555555"/>
<path d="M31.4161 16.7817C31.2056 17.1249 31.0944 17.5197 31.0947 17.9222C31.0947 19.1166 32.047 20.0856 33.2201 20.0856C34.3932 20.0856 35.3447 19.1166 35.3447 17.9222C35.3457 17.5197 35.2347 17.1248 35.0241 16.7817H31.4161Z" fill="#F3E03B"/>
<path d="M39.3532 18.4566V17.551C39.3532 17.1398 39.0327 16.8008 38.6325 16.7817H36.0649C36.2048 17.1732 36.2656 17.5886 36.2438 18.0038C36.2479 18.0573 36.2487 18.1112 36.2487 18.1647C36.2487 19.876 34.8849 21.2639 33.2033 21.2639C31.5218 21.2639 30.1588 19.876 30.1588 18.1647C30.1587 18.111 30.1601 18.0574 30.1629 18.0038C30.141 17.5885 30.2018 17.1729 30.3417 16.7812H27.8076C27.4083 16.8009 27.0869 17.1398 27.0869 17.551V18.4571C27.0869 18.8805 27.4275 19.2272 27.844 19.2272H28.5847C28.6834 19.6734 28.8448 20.1034 29.0641 20.5044L28.5683 21.0079C28.4269 21.1541 28.3478 21.3496 28.3478 21.553C28.3478 21.7565 28.4269 21.9519 28.5683 22.0982L29.198 22.7388C29.492 23.0377 29.9742 23.0377 30.2678 22.7388L30.7264 22.2721C31.1264 22.5223 31.562 22.7105 32.0184 22.8303V23.4763C32.0184 23.8997 32.3593 24.2464 32.7754 24.2464H33.6656C34.0808 24.2464 34.4226 23.8997 34.4226 23.4763V22.8217C34.8747 22.6993 35.3057 22.5093 35.7011 22.2582L36.1719 22.7388C36.4667 23.0377 36.9478 23.0377 37.2418 22.7388L37.8718 22.0969C38.1658 21.7976 38.1658 21.308 37.8718 21.0079L37.3549 20.482C37.5672 20.0879 37.7248 19.6657 37.822 19.2272H38.597C39.0135 19.2272 39.3532 18.8801 39.3532 18.4566Z" fill="#F3E03B"/>
</g>
<defs>
<clipPath id="clip0_106_11022">
<rect width="49" height="49" fill="white"/>
</clipPath>
</defs>
</svg>
