<svg width="65" height="60" viewBox="0 0 65 60" fill="none" xmlns="http://www.w3.org/2000/svg">
<g clip-path="url(#clip0_104_10959)">
<path fill-rule="evenodd" clip-rule="evenodd" d="M53.7333 8.0164L58.3984 12.7018C59.626 13.9355 59.626 15.9538 58.3984 17.1868L54.6427 20.9595C55.6915 22.9287 56.4758 25.0277 56.9752 27.2022H61.8421C63.5768 27.2022 65 28.6316 65 30.3744V37.0003C65 38.7431 63.5768 40.1724 61.8421 40.1724H56.531C55.8872 42.3078 54.9624 44.3482 53.7807 46.2398L57.2244 49.699C58.4512 50.9313 58.4512 52.9504 57.2244 54.1833L52.5586 58.8694C51.9665 59.4614 51.1635 59.794 50.3263 59.794C49.489 59.794 48.686 59.4614 48.0939 58.8694L44.4336 55.1874V46.9785C46.4781 45.2362 48.1194 43.0704 49.2437 40.6309C50.368 38.1914 50.9486 35.5366 50.9451 32.8505C50.9451 22.617 42.6827 14.318 32.4946 14.318C22.3065 14.318 14.0441 22.617 14.0441 32.8498C14.0405 35.2856 14.5176 37.6982 15.448 39.9493C16.3784 42.2004 17.7439 44.2458 19.4661 45.9683L19.1648 54.2253L15.7212 57.6838C15.1291 58.2758 14.3261 58.6084 13.4889 58.6084C12.6516 58.6084 11.8486 58.2758 11.2565 57.6838L6.59141 52.9984C5.36385 51.7648 5.36385 49.7464 6.59141 48.5134L10.3465 44.7407C9.29541 42.7726 8.511 40.6732 8.01396 38.498H3.14708C1.42323 38.4933 0 37.0639 0 35.3211V28.7006C0 26.9578 1.42323 25.5285 3.15792 25.5285H8.46896C9.11277 23.3931 10.0376 21.3528 11.2193 19.4611L7.77562 16.0019C6.54875 14.7696 6.54875 12.7506 7.77562 11.5176L12.4414 6.8315C13.0335 6.2395 13.8365 5.90693 14.6738 5.90693C15.511 5.90693 16.314 6.2395 16.9061 6.8315L20.6619 10.6035C22.6198 9.54843 24.7103 8.76051 26.8775 8.26083V3.37229C26.8775 1.63489 28.2994 0.205566 30.0347 0.205566H36.6316C38.3662 0.205566 39.7895 1.63421 39.7895 3.3777V8.70635C41.9171 9.35403 43.9485 10.2833 45.8297 11.4695L49.2734 8.01098C50.4955 6.78343 52.5065 6.78343 53.7333 8.0164Z" fill="#DBDBDB"/>
<path d="M23.3957 39.8015C21.0997 36.7614 19.275 33.3502 21.1735 28.3452C22.4011 25.0993 25.236 22.437 28.807 20.9495C22.9725 33.8818 39.7249 38.515 40.2273 23.1974C45.8343 27.8726 45.7862 34.7687 41.6763 40.3425C39.7351 42.9784 39.2117 44.4605 38.7885 45.9751C38.5448 46.8039 38.4974 47.6381 38.4974 48.6902C38.492 50.1189 38.5556 55.3263 38.6348 59.6779H34.8208V48.3233C34.8208 46.267 31.7266 46.267 31.7266 48.3233V59.6779H28.2193C28.14 55.6026 28.0554 50.6876 27.966 49.3964C27.8861 48.068 27.7541 47.181 27.4264 46.3414C26.8495 44.8221 26.1196 43.4456 23.3957 39.8482V39.8008V39.8015Z" fill="#F3E03B"/>
</g>
<defs>
<clipPath id="clip0_104_10959">
<rect width="65" height="60" fill="white"/>
</clipPath>
</defs>
</svg>
