<svg width="95" height="56" viewBox="0 0 95 56" fill="none" xmlns="http://www.w3.org/2000/svg">
<path fill-rule="evenodd" clip-rule="evenodd" d="M2.39811 50.5329H11.26C10.9589 50.2161 10.7909 49.7959 10.7906 49.3588V1.69417C10.7906 0.763166 11.5403 0 12.4554 0H82.1055C83.0206 0 83.7704 0.763166 83.7704 1.69417V49.3588C83.7704 49.814 83.5899 50.2273 83.3009 50.5329H92.5998C92.916 50.5332 93.2289 50.5967 93.5203 50.7196C93.8116 50.8425 94.0754 51.0223 94.2964 51.2485C94.6333 51.5926 94.8621 52.0277 94.9545 52.5003C95.047 52.9728 94.999 53.4621 94.8165 53.9078C94.6965 54.2031 94.5198 54.472 94.2964 54.6994C94.0755 54.9259 93.8117 55.1059 93.5204 55.2291C93.2291 55.3522 92.9161 55.416 92.5998 55.4167H2.3989C2.0826 55.4161 1.7696 55.3524 1.47827 55.2292C1.18693 55.106 0.923135 54.9259 0.702359 54.6994C0.478932 54.472 0.302228 54.2031 0.182234 53.9078C0.000978222 53.4619 -0.046357 52.9729 0.0460229 52.5006C0.138403 52.0283 0.366489 51.5932 0.702359 51.2485C0.923214 51.0223 1.18706 50.8424 1.4784 50.7195C1.76974 50.5966 2.08191 50.5331 2.39811 50.5329ZM62.8997 34.2435C62.9281 34.1139 62.9819 33.9912 63.0581 33.8824C63.1342 33.7737 63.2311 33.6811 63.3432 33.61C63.4553 33.5389 63.5803 33.4907 63.7112 33.4682C63.842 33.4457 63.9759 33.4493 64.1054 33.4788C64.6461 33.607 64.9817 34.1565 64.8574 34.7075L62.8925 43.2701C62.8329 43.5328 62.6718 43.7613 62.4444 43.9058C62.2763 44.0129 62.0799 44.0666 61.8807 44.0601C61.6815 44.0537 61.489 43.9872 61.3282 43.8694C61.2199 43.7909 61.1283 43.6917 61.0586 43.5776C60.9889 43.4634 60.9425 43.3366 60.9221 43.2044C60.9004 43.0718 60.9048 42.9363 60.9347 42.8054L62.8997 34.2435ZM18.1444 15.6402C17.4912 15.6402 16.9624 15.1018 16.9624 14.4368C16.9624 13.7742 17.4912 13.2343 18.1444 13.2343H47.9166C48.5681 13.2343 49.0969 13.7742 49.0969 14.4376C49.0969 15.1026 48.5681 15.6402 47.9174 15.6402H18.1444ZM18.1444 23.3019C17.4912 23.3019 16.9624 22.7612 16.9624 22.0986C16.9624 21.4336 17.4912 20.8953 18.1444 20.8953H45.7102C46.3617 20.8953 46.8906 21.4336 46.8906 22.0986C46.8906 22.7612 46.3617 23.3019 45.711 23.3019H18.1444ZM18.1444 38.623C17.4912 38.623 16.9624 38.0847 16.9624 37.4197C16.9624 36.7547 17.4912 36.2164 18.1444 36.2164H37.5576C38.2092 36.2164 38.7396 36.7547 38.7396 37.4197C38.7396 38.0847 38.2092 38.623 37.5576 38.623H18.1444ZM18.1444 30.9613C17.8309 30.9613 17.53 30.8346 17.3091 30.609C17.0872 30.382 16.963 30.0771 16.9632 29.7595C16.9632 29.4405 17.0875 29.1341 17.3091 28.9093C17.5308 28.6837 17.8309 28.557 18.1444 28.557H39.4766C39.7893 28.557 40.0901 28.6837 40.311 28.9093C40.5327 29.1349 40.657 29.4397 40.657 29.7595C40.657 30.0778 40.5327 30.3834 40.311 30.609C40.0894 30.8346 39.7893 30.9613 39.4766 30.9613H18.1444ZM59.5485 41.0535C59.7485 41.2342 59.8702 41.4857 59.888 41.7546C59.9057 42.0236 59.818 42.2889 59.6435 42.4943C59.5577 42.5947 59.4526 42.677 59.3346 42.7363C59.2166 42.7956 59.0879 42.8308 58.9561 42.8398C58.8242 42.8488 58.692 42.8314 58.567 42.7887C58.442 42.7459 58.3267 42.6787 58.228 42.5909L54.7898 39.5255C54.5897 39.3449 54.4678 39.0934 54.4501 38.8244C54.4323 38.5554 54.5201 38.29 54.6948 38.0847L54.793 37.9842L58.228 34.9228C58.3265 34.8345 58.4416 34.7668 58.5667 34.7237C58.6918 34.6807 58.8242 34.6631 58.9562 34.6721C59.0881 34.6812 59.2169 34.7165 59.335 34.7762C59.4531 34.8358 59.558 34.9185 59.6435 35.0194C59.818 35.2248 59.9057 35.4901 59.888 35.759C59.8702 36.028 59.7485 36.2795 59.5485 36.4602L56.9732 38.756L59.5485 41.0535ZM67.7961 42.5901C67.6975 42.678 67.5823 42.7454 67.4573 42.7883C67.3323 42.8312 67.2001 42.8487 67.0682 42.8397C66.9364 42.8308 66.8077 42.7957 66.6896 42.7364C66.5715 42.677 66.4665 42.5947 66.3806 42.4943C66.2061 42.2889 66.1184 42.0236 66.1362 41.7546C66.1539 41.4857 66.2756 41.2342 66.4756 41.0535L69.0509 38.7568L66.4748 36.461C66.275 36.2802 66.1534 36.0286 66.1358 35.7597C66.1182 35.4907 66.206 35.2255 66.3806 35.0202C66.4661 34.9192 66.571 34.8365 66.689 34.7768C66.807 34.717 66.9358 34.6816 67.0678 34.6725C67.1998 34.6634 67.3322 34.6809 67.4573 34.7239C67.5824 34.7669 67.6976 34.8345 67.7961 34.9228L71.2304 37.9842L71.3293 38.0847C71.6935 38.5075 71.6499 39.1535 71.2327 39.5255L67.7961 42.5901ZM81.1634 7.04029H13.635V48.4761H81.1634V7.04029ZM21.8327 2.72888C22.3869 2.72888 22.835 3.18567 22.835 3.74854C22.835 4.31063 22.3877 4.76821 21.8327 4.76821C21.5647 4.7657 21.3086 4.65691 21.1206 4.46573C20.9327 4.27455 20.8284 4.01661 20.8305 3.74854C20.8305 3.18646 21.2801 2.72888 21.8327 2.72888ZM18.3312 2.72888C18.8846 2.72888 19.3319 3.18567 19.3319 3.74854C19.3319 4.31063 18.8846 4.76821 18.3312 4.76821C17.777 4.76821 17.3274 4.31142 17.3274 3.74854C17.3274 3.18646 17.7762 2.72888 18.3312 2.72888ZM14.8281 2.72888C15.3814 2.72888 15.8303 3.18567 15.8303 3.74854C15.8303 4.31063 15.3814 4.76821 14.8281 4.76821C14.2739 4.76821 13.8266 4.31142 13.8266 3.74854C13.8266 3.18646 14.2731 2.72888 14.8281 2.72888ZM44.7665 51.7354H50.2322C50.7444 51.7354 51.164 52.1621 51.164 52.683C51.164 53.2047 50.7444 53.6315 50.2322 53.6315H44.7665C44.2543 53.6315 43.8347 53.204 43.8347 52.683C43.8347 52.1621 44.2543 51.7354 44.7665 51.7354Z" fill="#555555"/>
<path d="M60.9092 12.7441C60.5011 13.4094 60.2855 14.1748 60.2861 14.9553C60.2861 17.2709 62.1323 19.1495 64.4068 19.1495C66.6812 19.1495 68.5258 17.2709 68.5258 14.9553C68.5278 14.1748 68.3127 13.4092 67.9043 12.7441H60.9092Z" fill="#F3E03B"/>
<path d="M76.2973 15.9919V14.2359C76.2973 13.4387 75.6758 12.7817 74.9 12.7444H69.922C70.1932 13.5035 70.3111 14.3089 70.2688 15.1139C70.2767 15.2176 70.2783 15.3221 70.2783 15.4258C70.2783 18.7437 67.6341 21.4346 64.374 21.4346C61.1139 21.4346 58.4713 18.7437 58.4713 15.4258C58.4712 15.3218 58.4738 15.2178 58.4793 15.1139C58.4368 14.3087 58.5546 13.503 58.826 12.7437H53.9129C53.1387 12.7817 52.5156 13.4387 52.5156 14.2359V15.9927C52.5156 16.8136 53.1759 17.4857 53.9834 17.4857H55.4195C55.6109 18.3509 55.9238 19.1846 56.3489 19.9621L55.3878 20.9382C55.1135 21.2217 54.9602 21.6006 54.9602 21.9951C54.9602 22.3895 55.1135 22.7685 55.3878 23.0519L56.6085 24.2941C57.1785 24.8736 58.1135 24.8736 58.6827 24.2941L59.5718 23.3892C60.3473 23.8743 61.1918 24.2392 62.0766 24.4714V25.7238C62.0766 26.5448 62.7376 27.2169 63.5443 27.2169H65.2702C66.0753 27.2169 66.7379 26.5448 66.7379 25.7238V24.4548C67.6144 24.2174 68.4501 23.8491 69.2166 23.3623L70.1294 24.2941C70.701 24.8736 71.6336 24.8736 72.2036 24.2941L73.4251 23.0496C73.9951 22.4693 73.9951 21.5201 73.4251 20.9382L72.4229 19.9185C72.8345 19.1546 73.1401 18.336 73.3285 17.4857H74.8311C75.6386 17.4857 76.2973 16.8128 76.2973 15.9919Z" fill="#F3E03B"/>
</svg>
