<svg width="34" height="34" viewBox="0 0 34 34" fill="none" xmlns="http://www.w3.org/2000/svg">
<path fill-rule="evenodd" clip-rule="evenodd" d="M17 34C7.61104 34 0 26.389 0 17C0 7.61104 7.61104 0 17 0C26.389 0 34 7.61104 34 17C34 26.389 26.389 34 17 34ZM17.2366 16.0459C18.6285 16.0459 25.3966 12.24 25.3966 12.24L25.4079 11.56C25.4079 10.8092 24.7987 10.2 24.0458 10.2H10.4281C10.2494 10.1998 10.0724 10.2349 9.9072 10.3031C9.74203 10.3714 9.59194 10.4715 9.4655 10.5978C9.33906 10.7241 9.23876 10.8741 9.17033 11.0392C9.10189 11.2043 9.06667 11.3813 9.06667 11.56V12.1656C9.06667 12.1656 15.9092 16.0459 17.2366 16.0459ZM9.07729 14.28C9.07729 14.28 15.9085 17.9159 17.2373 17.9159C18.6929 17.9159 25.3973 14.28 25.3973 14.28L25.4079 22.44C25.4079 23.1908 24.7987 23.8 24.0458 23.8H10.4281C9.67725 23.8 9.06667 23.1908 9.06667 22.44L9.07729 14.28Z" fill="white"/>
</svg>
