<svg width="34" height="34" viewBox="0 0 34 34" fill="none" xmlns="http://www.w3.org/2000/svg">
<path fill-rule="evenodd" clip-rule="evenodd" d="M17 0C7.61104 0 0 7.61104 0 17C0 26.389 7.61104 34 17 34C26.389 34 34 26.389 34 17C34 7.61104 26.389 0 17 0ZM11.8915 8.5C11.9091 8.51521 11.9299 8.52623 11.9523 8.53225C11.9748 8.53826 11.9983 8.5391 12.0211 8.53471C12.228 8.51771 12.405 8.56729 12.5191 8.75712L12.58 8.85488C12.8166 9.23879 13.0539 9.62271 13.2791 10.0165C13.442 10.2999 13.5979 10.5896 13.7537 10.8786C13.8677 11.0904 13.9825 11.3029 14.0994 11.5132C14.1447 11.5982 14.2021 11.679 14.2587 11.7597C14.2906 11.8051 14.3225 11.8504 14.353 11.8965C14.4252 12.0119 14.4946 12.1302 14.5626 12.2457L14.5732 12.2641C14.7192 12.5403 14.7121 12.818 14.4953 13.0383C14.2673 13.272 14.0215 13.4923 13.7771 13.7133L13.5185 13.9471C13.4123 14.0448 13.3046 14.1405 13.1962 14.2368C13.0262 14.3877 12.8562 14.5392 12.6933 14.6965C12.4844 14.8977 12.4312 15.1498 12.5715 15.4147L12.6105 15.4877C12.8113 15.8715 13.0215 16.2503 13.2409 16.6239C14.122 18.093 15.2483 19.3417 16.6706 20.3051C17.2189 20.6777 17.7898 21.0198 18.365 21.3456C18.9082 21.6523 19.12 21.6006 19.5408 21.1303C19.7639 20.8831 19.9821 20.6337 20.201 20.3837C20.3667 20.1939 20.5339 20.0033 20.7017 19.8135C20.7995 19.709 20.9051 19.6121 21.0177 19.5238C21.2394 19.3368 21.4823 19.3162 21.7373 19.4445L21.7862 19.4671C21.8429 19.494 21.8995 19.5202 21.9477 19.5557C22.3996 19.8787 22.8877 20.1386 23.375 20.3986C23.6165 20.5275 23.8581 20.6557 24.0954 20.7924C24.339 20.9327 24.5792 21.0793 24.8179 21.2252C24.9553 21.3088 25.0913 21.3924 25.228 21.4738C25.4306 21.5942 25.512 21.7692 25.4986 22.01C25.4603 22.6886 25.3477 23.3545 24.9532 23.9268C24.7888 24.1648 24.5551 24.373 24.3192 24.5409C23.6647 24.9992 22.9344 25.2818 22.1574 25.4547C21.4512 25.6133 20.7471 25.556 20.0706 25.3442C18.7645 24.9418 17.4774 24.48 16.2924 23.7809C15.2171 23.1448 14.2382 22.3762 13.333 21.5177C12.1862 20.4262 11.1626 19.2362 10.3353 17.8812C9.79554 17.0021 9.41092 16.0551 9.06171 15.0882C8.85062 14.506 8.64237 13.928 8.54887 13.3103C8.44121 12.6112 8.51558 11.9382 8.73942 11.2752C8.94058 10.6767 9.19275 10.1044 9.57171 9.59296C9.87062 9.19629 10.2432 8.90446 10.7256 8.77412C10.9983 8.70187 11.2724 8.64025 11.5465 8.57862C11.6613 8.55242 11.7767 8.52692 11.8915 8.5Z" fill="white"/>
</svg>
