<svg width="34" height="34" viewBox="0 0 34 34" fill="none" xmlns="http://www.w3.org/2000/svg">
<path fill-rule="evenodd" clip-rule="evenodd" d="M17 0C7.61104 0 0 7.61104 0 17C0 26.389 7.61104 34 17 34C26.389 34 34 26.389 34 17C34 7.61104 26.389 0 17 0ZM8.16142 14.0802H12.0133V25.6558H8.16142V14.0802ZM12.2676 10.4996C12.2428 9.36417 11.4311 8.5 10.1129 8.5C8.79538 8.5 7.93333 9.36417 7.93333 10.4996C7.93333 11.611 8.76917 12.5 10.0626 12.5H10.0874C11.4311 12.5 12.2676 11.611 12.2676 10.4996ZM21.4717 13.8082C24.0075 13.8082 25.9073 15.4629 25.9073 19.0187V25.6558H22.0547V19.4629C22.0547 17.9074 21.4972 16.8456 20.1032 16.8456C19.0386 16.8456 18.4046 17.561 18.1262 18.2523C18.0242 18.5002 17.9987 18.8452 17.9987 19.1909V25.6558H14.1461C14.1461 25.6558 14.1971 15.1668 14.1461 14.0802H17.9995V15.72C18.5102 14.9317 19.426 13.8082 21.4717 13.8082Z" fill="white"/>
</svg>
