<svg width="34" height="34" viewBox="0 0 34 34" fill="none" xmlns="http://www.w3.org/2000/svg">
<path fill-rule="evenodd" clip-rule="evenodd" d="M0 17C0 26.389 7.61104 34 17 34C26.389 34 34 26.389 34 17C34 7.61104 26.389 0 17 0C7.61104 0 0 7.61104 0 17ZM13.8833 24.7917L14.1723 20.4581L22.0554 13.3443C22.401 13.0376 21.9796 12.8874 21.5206 13.1658L11.7916 19.3035L7.58979 17.9924C6.68242 17.714 6.67604 17.0907 7.79308 16.6423L24.1683 10.3282C24.9163 9.98821 25.6381 10.5081 25.3527 11.6528L22.564 24.7938C22.3692 25.7281 21.8053 25.9512 21.0233 25.5198L16.7755 22.3812L14.7333 24.3667L14.7142 24.3851C14.4861 24.6075 14.2963 24.7917 13.8833 24.7917Z" fill="white"/>
</svg>
