<svg width="42" height="36" viewBox="0 0 42 36" fill="none" xmlns="http://www.w3.org/2000/svg">
<g clip-path="url(#clip0_94_10882)">
<path fill-rule="evenodd" clip-rule="evenodd" d="M19.4964 18L14.0662 23.1758C13.978 23.2599 13.978 23.3962 14.0662 23.4803L14.5453 23.9369C14.6335 24.021 14.7765 24.021 14.8647 23.9369L20.9338 18.1522C20.978 18.1102 21 18.0551 21 18C21 17.9449 20.978 17.8898 20.9338 17.8478L14.8647 12.0631C14.7765 11.979 14.6335 11.979 14.5453 12.0631L14.0662 12.5197C13.9779 12.6038 13.9779 12.7401 14.0662 12.8242L19.4964 18Z" fill="#222222"/>
</g>
<g clip-path="url(#clip1_94_10882)">
<path fill-rule="evenodd" clip-rule="evenodd" d="M26.4964 18L21.0662 23.1758C20.978 23.2599 20.978 23.3962 21.0662 23.4803L21.5453 23.9369C21.6335 24.021 21.7765 24.021 21.8647 23.9369L27.9338 18.1522C27.978 18.1102 28 18.0551 28 18C28 17.9449 27.978 17.8898 27.9338 17.8478L21.8647 12.0631C21.7765 11.979 21.6335 11.979 21.5453 12.0631L21.0662 12.5197C20.9779 12.6038 20.9779 12.7401 21.0662 12.8242L26.4964 18Z" fill="#222222"/>
</g>
<defs>
<clipPath id="clip0_94_10882">
<rect width="7" height="12" fill="white" transform="translate(14 12)"/>
</clipPath>
<clipPath id="clip1_94_10882">
<rect width="7" height="12" fill="white" transform="translate(21 12)"/>
</clipPath>
</defs>
</svg>
