<svg width="98" height="169" viewBox="0 0 98 169" fill="none" xmlns="http://www.w3.org/2000/svg">
<g clip-path="url(#clip0_106_11079)">
<mask id="mask0_106_11079" style="mask-type:luminance" maskUnits="userSpaceOnUse" x="0" y="0" width="98" height="169">
<path d="M98 0.14209V168.858H0V0.14209H98Z" fill="white"/>
</mask>
<g mask="url(#mask0_106_11079)">
<path fill-rule="evenodd" clip-rule="evenodd" d="M18.29 74.885C17.01 74.885 15.97 73.8584 15.97 72.5876C15.97 71.3234 17.01 70.2936 18.29 70.2936H79.71C80.99 70.2936 82.03 71.3234 82.03 72.5876C82.03 73.8584 80.99 74.885 79.71 74.885H18.29ZM18.29 88.4314C17.01 88.4314 15.97 87.4048 15.97 86.1373C15.97 84.8698 17.01 83.84 18.29 83.84H77.4433C78.7233 83.84 79.7633 84.8698 79.7633 86.1373C79.7633 87.4048 78.7233 88.4314 77.4433 88.4314H18.29ZM18.29 101.981C17.01 101.981 15.97 100.951 15.97 99.6838C15.97 98.4163 17.01 97.3897 18.29 97.3897H68.8067C70.0867 97.3897 71.1267 98.4163 71.1267 99.6838C71.1267 100.951 70.0867 101.981 68.8067 101.981H18.29ZM18.29 129.077C17.01 129.077 15.97 128.047 15.97 126.78C15.97 125.512 17.01 124.483 18.29 124.483H34.4267C35.7067 124.483 36.7467 125.512 36.7467 126.78C36.7467 128.047 35.7067 129.077 34.4267 129.077H18.29ZM18.29 115.528C17.01 115.528 15.97 114.501 15.97 113.233C15.97 111.966 17.01 110.936 18.29 110.936H43.9567C45.2367 110.936 46.2767 111.966 46.2767 113.233C46.2767 114.501 45.2367 115.528 43.9567 115.528H18.29ZM18.4067 0.14209H79.5967C89.76 0.14209 98 8.31482 98 18.3723V150.631C98 160.695 89.76 168.858 79.5967 168.858H18.4067C8.24333 168.858 0 160.695 0 150.631V18.3492C0 8.26201 8.22667 0.14209 18.4067 0.14209ZM6.34 143.538H91.6333V18.1974H6.34V143.538ZM48.9767 149.242C53.14 149.242 56.5433 152.562 56.5433 156.734C56.5433 160.864 53.1933 164.231 48.9767 164.231C44.8133 164.231 41.4067 160.913 41.4067 156.734C41.4067 152.615 44.76 149.242 48.9767 149.242ZM60.0033 128.925C60.3944 129.265 60.6333 129.744 60.6677 130.258C60.7021 130.771 60.5291 131.278 60.1867 131.665C59.4767 132.47 58.2367 132.55 57.4233 131.847L51.2467 126.486C50.4333 125.783 50.3533 124.555 51.0633 123.75L51.2633 123.555L57.4233 118.211C57.6167 118.043 57.8416 117.915 58.0852 117.833C58.3289 117.751 58.5864 117.718 58.843 117.735C59.0996 117.752 59.3504 117.818 59.5809 117.931C59.8115 118.044 60.0173 118.201 60.1867 118.393C60.5286 118.78 60.7014 119.285 60.6673 119.798C60.6504 120.052 60.583 120.301 60.469 120.529C60.3551 120.757 60.1969 120.961 60.0033 121.129L55.51 125.027L60.0033 128.925ZM74.8233 131.847C74.4322 132.184 73.9217 132.355 73.4038 132.321C72.8859 132.287 72.4027 132.051 72.06 131.665C71.35 130.856 71.43 129.632 72.2433 128.925L76.7367 125.027L72.2433 121.129C72.0497 120.961 71.8914 120.757 71.7774 120.529C71.6634 120.301 71.596 120.052 71.579 119.798C71.562 119.544 71.5957 119.289 71.6782 119.048C71.7607 118.807 71.8905 118.584 72.06 118.393C72.2294 118.201 72.4352 118.044 72.6658 117.931C72.8963 117.819 73.1471 117.752 73.4037 117.735C73.6603 117.718 73.9177 117.751 74.1613 117.833C74.4049 117.915 74.6299 118.043 74.8233 118.211L80.9867 123.555L81.1833 123.75C81.3529 123.941 81.4827 124.164 81.5653 124.405C81.6478 124.646 81.6815 124.901 81.6643 125.156C81.6473 125.41 81.5799 125.658 81.4659 125.886C81.3519 126.115 81.1936 126.318 81 126.486L74.8233 131.847ZM65.7667 117.102C66.0133 116.059 67.07 115.409 68.1267 115.65C69.18 115.894 69.8367 116.94 69.5933 117.987L66.0633 132.952C65.8167 133.995 64.76 134.649 63.7067 134.405C63.1996 134.288 62.7601 133.976 62.4845 133.539C62.2089 133.101 62.1198 132.573 62.2367 132.071L65.7667 117.102Z" fill="#555555"/>
<path d="M41.0799 23.9207C40.1561 25.3809 39.6673 27.0696 39.6699 28.7927C39.6699 33.8921 43.8499 38.0279 48.9999 38.0279C54.1499 38.0279 58.3299 33.8921 58.3299 28.7924C58.3299 27 57.8133 25.3265 56.9199 23.9204L41.0799 23.9207Z" fill="#F3E03B"/>
<path d="M75.927 31.0768V27.2083C75.927 25.449 74.517 24.0033 72.7636 23.9207H61.4903C62.0103 25.3335 62.2936 26.8617 62.2936 28.456C62.2936 28.6838 62.2903 28.9148 62.277 29.1426C62.2903 29.3703 62.2936 29.5981 62.2936 29.8258C62.2936 37.1367 56.3103 43.0649 48.927 43.0649C41.5436 43.0649 35.5603 37.1367 35.5603 29.8255C35.5603 29.5978 35.5636 29.37 35.577 29.1422C35.5636 28.9145 35.5603 28.6834 35.5603 28.4557C35.558 26.909 35.8299 25.374 36.3636 23.9204H25.237C23.4803 24.0029 22.0703 25.4487 22.0703 27.208V31.0765C22.0703 32.8853 23.567 34.3674 25.3936 34.3674H28.6503C29.0836 36.2755 29.7919 38.112 30.7536 39.8203L28.577 41.9724C27.2836 43.2531 27.2836 45.3491 28.577 46.6265L31.3403 49.3628C32.6303 50.6435 34.747 50.6435 36.0403 49.3628L38.0536 47.3692C39.8123 48.4421 41.7236 49.2477 43.7236 49.7589V52.5151C43.7236 54.3239 45.217 55.806 47.047 55.806H50.9536C52.7803 55.806 54.277 54.3239 54.277 52.5151V49.7193C56.2581 49.1984 58.1499 48.3885 59.8903 47.3163L61.9603 49.3628C63.2536 50.6435 65.367 50.6435 66.6603 49.3628L69.4236 46.6265C70.7136 45.3458 70.7136 43.2531 69.4236 41.9724L67.1536 39.7245C68.0862 38.0423 68.7762 36.2391 69.2036 34.3674H72.6036C74.4336 34.3674 75.927 32.8857 75.927 31.0768Z" fill="#F3E03B"/>
</g>
</g>
<defs>
<clipPath id="clip0_106_11079">
<rect width="98" height="169" fill="white"/>
</clipPath>
</defs>
</svg>
