<svg width="26" height="32" viewBox="0 0 26 32" fill="none" xmlns="http://www.w3.org/2000/svg">
<g clip-path="url(#clip0_92_10782)">
<path d="M12.9998 32C12.8254 32 12.655 31.9474 12.5101 31.8488C12.3833 31.7624 9.36295 29.6956 6.30067 26.3996C2.11979 21.9002 0 17.4776 0 13.2544C0 5.9458 5.83188 0 12.9998 0C20.1681 0 26 5.9458 26 13.2544C26 17.4776 23.8802 21.9 19.6995 26.3996C16.6368 29.6956 13.6163 31.7624 13.4893 31.8488C13.3445 31.9474 13.1741 32.0001 12.9998 32ZM12.9998 1.7996C6.80491 1.7996 1.76505 6.9384 1.76505 13.2544C1.76505 21.1942 10.7778 28.3546 12.9998 29.999C15.2222 28.3548 24.235 21.1942 24.235 13.2544C24.235 6.9384 19.1951 1.7996 12.9998 1.7996Z" fill="#222222"/>
<path d="M12.9999 18.2726C10.2862 18.2726 8.07861 16.0214 8.07861 13.2546C8.07861 10.4878 10.2862 8.23657 12.9999 8.23657C15.7139 8.23657 17.9216 10.4878 17.9216 13.2546C17.9216 16.0214 15.7139 18.2726 12.9999 18.2726ZM12.9999 10.036C11.2597 10.036 9.84366 11.4798 9.84366 13.2544C9.84366 15.029 11.2597 16.4728 12.9999 16.4728C14.7405 16.4728 16.1565 15.029 16.1565 13.2544C16.1565 11.4798 14.7405 10.036 12.9999 10.036Z" fill="#222222"/>
</g>
<defs>
<clipPath id="clip0_92_10782">
<rect width="26" height="32" fill="white"/>
</clipPath>
</defs>
</svg>
