<svg width="123" height="87" viewBox="0 0 123 87" fill="none" xmlns="http://www.w3.org/2000/svg">
<g clip-path="url(#clip0_106_11088)">
<mask id="mask0_106_11088" style="mask-type:luminance" maskUnits="userSpaceOnUse" x="0" y="0" width="124" height="87">
<path d="M123.001 0.114746V86.8861H0V0.114746H123.001Z" fill="white"/>
</mask>
<g mask="url(#mask0_106_11088)">
<path fill-rule="evenodd" clip-rule="evenodd" d="M41.1585 30.5957V83.779C41.1569 84.2671 40.9624 84.7348 40.6173 85.08C40.2723 85.4252 39.8048 85.62 39.3167 85.6219H1.84281C1.35456 85.6203 0.886749 85.4256 0.541497 85.0804C0.196245 84.7351 0.00158355 84.2673 0 83.779L0 30.5957C0 29.5837 0.829816 28.7539 1.84281 28.7539H39.3117C40.3287 28.7539 41.1585 29.5827 41.1585 30.5957ZM20.5772 79.4958C21.1372 79.4958 21.6743 79.7182 22.0704 80.1141C22.4664 80.51 22.6891 81.0469 22.6893 81.6069C22.6893 82.7721 21.7424 83.719 20.5772 83.719C20.0172 83.7185 19.4803 83.4958 19.0844 83.0998C18.6884 82.7038 18.4657 82.1669 18.4652 81.6069C18.4665 81.0473 18.6895 80.5109 19.0853 80.1153C19.4811 79.7196 20.0176 79.4969 20.5772 79.4958ZM38.66 32.0412V77.623H2.75771V32.0412H38.66ZM102.641 44.3733H118.599C119.813 44.3733 120.921 44.8688 121.711 45.6646C122.12 46.0729 122.444 46.558 122.666 47.092C122.887 47.6261 123 48.1986 123 48.7766V82.4828C123.001 83.0609 122.888 83.6335 122.666 84.1677C122.445 84.7018 122.12 85.1868 121.711 85.5948C121.303 86.0044 120.818 86.3293 120.284 86.5507C119.749 86.7722 119.177 86.8858 118.599 86.8851H102.641C102.063 86.8862 101.49 86.7727 100.956 86.5513C100.422 86.3298 99.9367 86.0048 99.5289 85.5948C99.1193 85.1868 98.7944 84.7018 98.5729 84.1677C98.3515 83.6336 98.2379 83.061 98.2386 82.4828V48.7706C98.2386 47.5554 98.7331 46.4473 99.5289 45.6575C100.33 44.8568 101.426 44.3733 102.641 44.3733ZM99.7551 80.7701H121.477V49.175H99.7551V80.7701ZM110.614 82.1474C111.61 82.1474 112.424 82.9492 112.424 83.9572C112.424 84.9542 111.622 85.768 110.614 85.768C110.376 85.7684 110.14 85.7218 109.92 85.631C109.701 85.5401 109.501 85.4067 109.333 85.2385C109.164 85.0703 109.031 84.8705 108.94 84.6506C108.849 84.4308 108.803 84.1951 108.803 83.9572C108.803 82.9622 109.605 82.1474 110.614 82.1474ZM17.5172 0.114746H115.024C116.568 0.114746 117.827 1.37298 117.827 2.9175V34.6787H113.847V6.38892C113.845 5.73137 113.583 5.10128 113.118 4.63632C112.653 4.17136 112.023 3.90933 111.366 3.90748H21.1658C20.5083 3.90933 19.8782 4.17136 19.4132 4.63632C18.9483 5.10128 18.6862 5.73137 18.6844 6.38892V22.5828H14.7145V2.9175C14.7145 1.37298 15.9737 0.114746 17.5172 0.114746ZM47.0763 60.5912H92.5991V70.3138H47.0763V60.5912Z" fill="#555555"/>
<path d="M79.4713 74.1816H54.0463C54.0653 79.3087 51.1895 82.7721 47.2656 85.6229H86.261C81.3451 82.5148 79.5344 78.582 79.4713 74.1816Z" fill="#F3E03B"/>
</g>
</g>
<defs>
<clipPath id="clip0_106_11088">
<rect width="123" height="87" fill="white"/>
</clipPath>
</defs>
</svg>
