<svg width="49" height="49" viewBox="0 0 49 49" fill="none" xmlns="http://www.w3.org/2000/svg">
<g clip-path="url(#clip0_106_11033)">
<path fill-rule="evenodd" clip-rule="evenodd" d="M1.65392 37.8922C1.45836 33.5056 6.51728 27.9708 13.1733 29.865C11.2372 32.3371 10.0431 34.335 9.61576 35.8465C8.98891 38.0837 10.5022 39.914 12.8462 39.3957C14.5352 39.0205 16.7194 37.6608 19.1032 35.8982C20.8319 41.4811 16.244 47.2476 11.0893 47.4149C11.5643 45.6642 13.5331 41.7442 10.7776 43.5466C8.845 44.8148 5.33907 46.7969 2.74384 46.2425C1.79342 41.2895 8.15856 36.0099 4.29727 36.9431C3.38847 37.1762 2.50349 37.494 1.65392 37.8922Z" fill="#F3E03B"/>
<path d="M14.521 23.488C19.3724 8.99678 32.0383 -1.04469 47.8463 0.0959975C48.1205 0.115158 48.3775 0.23633 48.5668 0.435627C48.756 0.634923 48.8637 0.897885 48.8687 1.17267C50.314 17.2831 39.6448 29.2823 25.5019 34.8732V43.646C25.5022 43.8509 25.4451 44.0517 25.3371 44.2259C25.2291 44.4 25.0746 44.5404 24.8909 44.6313L18.1029 48.8302C17.866 48.9752 17.5832 49.0255 17.3109 48.9711C17.0387 48.9168 16.7968 48.7618 16.6337 48.5371C16.526 48.3883 16.4572 48.2148 16.4338 48.0326C14.9126 36.556 13.3115 36.0055 3.89595 32.7516L0.733463 31.6551C0.458529 31.5576 0.233477 31.3551 0.107684 31.0919C-0.0181092 30.8288 -0.0343691 30.5264 0.0624717 30.2513C0.103526 30.1303 0.164003 30.0173 0.242138 29.9162L4.73027 23.5365C4.83602 23.3842 4.97866 23.2611 5.14487 23.1788C5.31107 23.0965 5.49542 23.0577 5.6807 23.066L14.521 23.4844V23.4889V23.488Z" fill="#555555"/>
<path fill-rule="evenodd" clip-rule="evenodd" d="M29.6777 6.49256C34.5058 3.17267 40.3211 1.59738 46.1647 2.0265C46.3909 2.04247 46.6029 2.14263 46.7589 2.3072C46.9149 2.47178 47.0035 2.68883 47.0074 2.91556C47.5504 8.96905 45.7617 14.5679 42.551 19.3451L29.6777 6.49256Z" fill="#F3E03B"/>
<path fill-rule="evenodd" clip-rule="evenodd" d="M15.1104 27.675C17.0951 20.529 21.1241 13.6063 26.7498 8.74512L40.3259 22.3036C35.3476 27.982 28.8107 32.0727 21.5271 34.0675L17.9934 30.5541L15.1104 27.675Z" fill="#F8F8F8"/>
<path d="M31.1628 17.6305C30.7532 17.2208 30.2446 16.9241 29.6865 16.769C29.1283 16.614 28.5395 16.6059 27.9773 16.7456C27.4151 16.8853 26.8986 17.1679 26.4779 17.5662C26.0572 17.9644 25.7466 18.4647 25.5764 19.0184C25.3487 19.7596 25.3852 20.5568 25.6797 21.274C25.9742 21.9913 26.5084 22.5842 27.1911 22.9516C27.874 23.3198 28.6632 23.4405 29.4248 23.2933C30.1865 23.146 30.8738 22.7399 31.3703 22.1438C31.8661 21.5478 32.1399 20.7983 32.145 20.0231C32.1489 19.579 32.0641 19.1385 31.8954 18.7276C31.7267 18.3168 31.4777 17.9437 31.1628 17.6305Z" fill="#555555"/>
</g>
<defs>
<clipPath id="clip0_106_11033">
<rect width="49" height="49" fill="white"/>
</clipPath>
</defs>
</svg>
