<svg width="49" height="49" viewBox="0 0 49 49" fill="none" xmlns="http://www.w3.org/2000/svg">
<g clip-path="url(#clip0_106_11041)">
<path fill-rule="evenodd" clip-rule="evenodd" d="M24.4753 0C37.9918 0 48.9519 10.9605 48.9519 24.4753C48.9519 37.9922 37.9913 48.9519 24.4753 48.9519C10.9605 48.9519 0 37.9918 0 24.4753C0 10.9601 10.9605 0 24.4753 0ZM24.4753 11.5428C26.0336 11.5428 27.5292 11.8192 28.9122 12.3242L34.609 6.62869C31.5212 4.87098 28.0283 3.94936 24.4753 3.95487C20.8848 3.94923 17.3563 4.89054 14.2458 6.68387L19.9293 12.3665C21.3828 11.8209 22.9228 11.5416 24.4753 11.5428ZM36.7946 20.5306C37.2026 21.8057 37.4099 23.1365 37.4091 24.4753C37.4091 26.0751 37.1173 27.6077 36.5849 29.0221L42.2685 34.7066C44.0619 31.5954 45.0035 28.0664 44.9983 24.4753C45.0029 21.0867 44.1646 17.7502 42.5589 14.7662L36.7946 20.5306ZM28.307 36.8312C27.066 37.215 25.7743 37.4097 24.4753 37.4086C23.1011 37.4086 21.7745 37.1923 20.5306 36.7937L14.7667 42.5572C17.7505 44.1632 21.0871 45.0016 24.4757 44.997C27.8265 45.0015 31.127 44.1818 34.0863 42.6101L28.307 36.8312ZM12.325 28.9118C11.8057 27.4904 11.5407 25.9886 11.5424 24.4753C11.5424 23.1426 11.745 21.8553 12.1198 20.6445L6.34087 14.866C4.76942 17.8249 3.94972 21.1249 3.95399 24.4753C3.94894 28.0279 4.87054 31.5205 6.6278 34.6081L12.325 28.9118ZM33.4286 24.4753C33.4285 24.9745 33.3871 25.4728 33.305 25.9651L33.3045 25.9709C32.9384 28.1334 31.7907 30.0861 30.0794 31.458L30.067 31.4677C30.0233 31.503 29.9787 31.5375 29.9359 31.5719L29.9099 31.5913C29.5607 31.8573 29.1929 32.0979 28.8094 32.3113L28.8089 32.3122C28.7568 32.3409 28.7038 32.3696 28.6509 32.3969L28.6319 32.4075C28.5789 32.4349 28.5246 32.4632 28.4721 32.4892L28.469 32.491C28.0717 32.6896 27.6559 32.8591 27.2325 32.996L27.2171 33.0008C27.1588 33.0203 27.1001 33.0384 27.0418 33.0556L27.033 33.0578C26.9738 33.0768 26.9129 33.0935 26.852 33.1108L26.8476 33.1116C26.4752 33.2135 26.0965 33.291 25.714 33.3434L25.6831 33.3483C25.627 33.3562 25.5701 33.3624 25.5136 33.3703L25.4809 33.3734C25.4248 33.3796 25.3692 33.3849 25.3118 33.3906L25.273 33.3946L25.1039 33.4078L25.0752 33.4101C25.016 33.4131 24.956 33.4171 24.8955 33.4189C24.5679 33.4349 24.2397 33.4319 23.9124 33.4101C21.8347 33.282 19.8673 32.431 18.3512 31.0046L18.3503 31.0038C17.9854 30.6617 17.6499 30.2896 17.3473 29.8913L17.335 29.8759C17.2987 29.8283 17.2629 29.7803 17.2277 29.732L17.222 29.724C17.188 29.6755 17.1509 29.6251 17.1169 29.5761L17.1112 29.5673C16.8981 29.2597 16.7042 28.9392 16.5307 28.6076L16.5218 28.5904C16.4967 28.5418 16.4719 28.4915 16.4477 28.4434L16.4335 28.4156C16.41 28.3672 16.3867 28.3186 16.3638 28.2699L16.347 28.235C16.3245 28.1865 16.3029 28.1362 16.2808 28.0872L16.2693 28.0607L16.2031 27.907L16.1907 27.8748L16.1281 27.7216L16.1259 27.7137C16.0376 27.4828 15.9559 27.2458 15.8857 27.0087L15.8769 26.98L15.8332 26.8211L15.8235 26.7862C15.8091 26.7339 15.7957 26.6814 15.7833 26.6286L15.7736 26.5889C15.7607 26.5385 15.7488 26.4879 15.7378 26.437L15.7268 26.3872C15.7171 26.3364 15.7043 26.2812 15.6941 26.2296L15.691 26.2101C15.579 25.6394 15.5224 25.0591 15.522 24.4775V24.4762C15.522 24.3349 15.5268 24.1958 15.5321 24.0581C15.6619 21.2289 17.1063 18.7414 19.2685 17.1937C22.3241 15.2218 26.6176 15.2205 29.6755 17.1888C31.8041 18.7101 33.2392 21.1411 33.4109 23.9138L33.4145 23.9107C33.4233 24.0956 33.4286 24.2837 33.4286 24.4753Z" fill="#555555"/>
<path d="M13.3802 5.67114L20.321 12.4782L12.1601 20.7989L5.21973 13.9914L13.3802 5.67114Z" fill="#F3E03B"/>
<path d="M36.0476 28.2839L42.988 35.091L34.8271 43.4117L27.8867 36.6042L36.0476 28.2839Z" fill="#F3E03B"/>
<path d="M36.0476 4.78003L44.3816 12.9542L36.2203 21.2745L27.8867 13.1003L36.0476 4.78003Z" fill="#F3E03B"/>
<path d="M14.1365 26.6909L22.4696 34.865L14.3087 43.1853L5.97559 35.0107L14.1365 26.6909Z" fill="#F3E03B"/>
<path d="M49 24.5C49 38.0311 38.0311 49 24.5 49C10.9689 49 0 38.0311 0 24.5C0 10.9689 10.9689 0 24.5 0C38.0311 0 49 10.9689 49 24.5ZM4.09305 24.5C4.09305 35.7704 13.2296 44.907 24.5 44.907C35.7704 44.907 44.907 35.7704 44.907 24.5C44.907 13.2296 35.7704 4.09305 24.5 4.09305C13.2296 4.09305 4.09305 13.2296 4.09305 24.5Z" fill="#555555"/>
<path d="M37.8464 24.3004C37.8464 31.5608 31.9607 37.4466 24.7003 37.4466C17.4394 37.4466 11.5537 31.5608 11.5537 24.3004C11.5537 17.04 17.4394 11.1543 24.6998 11.1543C31.9607 11.1543 37.8464 17.04 37.8464 24.3004ZM16.0825 24.3004C16.0825 29.06 19.9407 32.9182 24.6998 32.9182C29.4595 32.9182 33.3177 29.06 33.3177 24.3004C33.3177 19.5408 29.4595 15.6826 24.6998 15.6826C19.9407 15.6826 16.0825 19.5408 16.0825 24.3004Z" fill="#555555"/>
</g>
<defs>
<clipPath id="clip0_106_11041">
<rect width="49" height="49" fill="white"/>
</clipPath>
</defs>
</svg>
