<svg width="60" height="60" viewBox="0 0 60 60" fill="none" xmlns="http://www.w3.org/2000/svg">
<g clip-path="url(#clip0_104_10954)">
<path fill-rule="evenodd" clip-rule="evenodd" d="M43.8558 42.8941L39.1829 54.8798L21.9564 54.6493L17.1909 42.8893C21.2875 35.5396 25.4477 26.5723 27.5869 18.7277L29.8568 18.9725L29.7689 40.1109C29.2816 40.2955 28.8759 40.6476 28.6247 41.1042C28.3734 41.5613 28.2925 42.0929 28.3965 42.6041C28.5005 43.1153 28.7827 43.573 29.1926 43.8956C29.6023 44.2169 30.1134 44.3812 30.6336 44.3588C31.1538 44.3363 31.6488 44.1287 32.0293 43.7733C32.4109 43.4172 32.6534 42.9368 32.7132 42.4183C32.7731 41.8998 32.6465 41.3769 32.356 40.9432C32.0668 40.5098 31.6325 40.1938 31.1311 40.0521L31.2047 19.1097L33.802 18.9921C35.7065 26.9008 39.8275 35.8384 43.8558 42.9042V42.8941ZM26.0679 2.31981e-07H35.0715C35.31 -0.000148155 35.5431 0.0708938 35.741 0.20403C35.9389 0.337167 36.0926 0.526339 36.1823 0.747327C36.2429 0.89406 36.2732 1.05149 36.2726 1.21069V4.1501H50.4718C50.6993 3.50043 51.0611 2.90594 51.5336 2.40534C52.006 1.90473 52.5786 1.50922 53.214 1.24455C54.1068 0.873092 55.09 0.775853 56.0383 0.965231C56.9865 1.15461 57.8569 1.62203 58.5386 2.30792C59.4563 3.22827 59.9714 4.47513 59.9709 5.77485C59.9708 7.07428 59.4558 8.32073 58.5386 9.24119C58.0854 9.69777 57.5464 10.0603 56.9527 10.3078C56.3589 10.5553 55.7221 10.683 55.0788 10.6836C54.4355 10.6837 53.7985 10.5563 53.2048 10.3087C52.611 10.0611 52.0722 9.69829 51.6196 9.24119L51.5317 9.14317C51.0545 8.64316 50.6899 8.04684 50.4623 7.39426H43.1376C45.5047 8.77586 47.6457 10.5127 49.4857 12.5442C53.1562 16.6063 55.583 21.6369 56.4778 27.038H58.4311C58.8196 27.038 59.192 27.1925 59.4671 27.4687C59.7419 27.7449 59.8961 28.1187 59.896 28.5083V35.1279C59.8961 35.5175 59.7419 35.8913 59.4671 36.1675C59.3312 36.3038 59.1697 36.412 58.9919 36.4858C58.8141 36.5596 58.6236 36.5976 58.4311 36.5976H51.9517C51.5631 36.5976 51.1907 36.4432 50.9156 36.1675C50.6407 35.8914 50.4865 35.5176 50.4867 35.1279V28.5077C50.4867 28.118 50.6412 27.7444 50.9156 27.4681C51.0515 27.3317 51.2129 27.2236 51.3907 27.1497C51.5685 27.0759 51.7592 27.038 51.9517 27.038H53.4606C52.5922 22.3971 50.458 18.0865 47.2936 14.5824C44.3461 11.3045 40.5214 8.93941 36.272 7.76673V10.3539C36.272 10.6741 36.1461 10.9806 35.921 11.2075C35.6962 11.4342 35.3907 11.5624 35.0715 11.564H26.0673C25.7517 11.5562 25.4518 11.4252 25.2315 11.1992C25.0109 10.9729 24.8869 10.6698 24.8857 10.3539V7.77149C20.526 8.98078 16.6196 11.4486 13.655 14.8663C10.6265 18.3285 8.57555 22.5352 7.71324 27.0535H9.17819C9.5667 27.0535 9.93918 27.2079 10.2142 27.4836C10.489 27.7598 10.6433 28.1336 10.6431 28.5232V35.1285C10.6431 35.5182 10.4887 35.8919 10.2142 36.1681C10.0783 36.3045 9.91687 36.4126 9.73908 36.4864C9.56129 36.5602 9.37069 36.5982 9.17819 36.5982H2.66433C2.47192 36.5982 2.2814 36.5602 2.10371 36.4864C1.92603 36.4126 1.76466 36.3044 1.62888 36.1681C1.35374 35.8921 1.19928 35.5182 1.19938 35.1285V28.5077C1.19938 28.118 1.35383 27.7444 1.62888 27.4681C1.76468 27.3318 1.92605 27.2237 2.10373 27.1499C2.28142 27.0761 2.47192 27.038 2.66433 27.038H4.66631C5.56469 21.7864 7.89476 16.8845 11.4 12.8721C13.3063 10.7027 15.5523 8.85748 18.0505 7.40852H9.49601C9.25228 8.09984 8.85664 8.72772 8.33819 9.24594C7.42584 10.1608 6.18761 10.6759 4.89561 10.6782C3.60362 10.6797 2.3639 10.1682 1.44888 9.25604C0.530702 8.33598 0.0155144 7.08894 0.0166033 5.78911C0.0170092 4.48987 0.531739 3.24362 1.44829 2.32277C1.90134 1.86769 2.43972 1.50646 3.03259 1.25977C3.62547 1.01308 4.26119 0.885772 4.90334 0.885149C5.5455 0.88507 6.18134 1.01206 6.77421 1.25879C7.36709 1.50552 7.90528 1.86713 8.35779 2.32277C8.88105 2.84186 9.27853 3.47384 9.51977 4.1703H24.8863V1.2297C24.881 0.909877 25.0023 0.600907 25.2237 0.370099C25.4448 0.139804 25.7488 0.006685 26.0679 2.31981e-07ZM38.7629 60H22.0538V56.6584H38.773V60H38.7629Z" fill="#DBDBDB"/>
<path d="M24.582 1.78218C24.582 1.30952 24.7698 0.856211 25.104 0.521988C25.4382 0.187764 25.8915 0 26.3642 0H34.8159C35.2886 0 35.7419 0.187764 36.0761 0.521988C36.4103 0.856211 36.5981 1.30952 36.5981 1.78218V10.3699C36.5981 10.8426 36.4103 11.2959 36.0761 11.6301C35.7419 11.9643 35.2886 12.1521 34.8159 12.1521H26.3642C25.8915 12.1521 25.4382 11.9643 25.104 11.6301C24.7698 11.2959 24.582 10.8426 24.582 10.3699V1.78218Z" fill="#F3E03B"/>
<path d="M48.5576 28.1252C48.5576 27.6525 48.7454 27.1992 49.0796 26.865C49.4138 26.5308 49.8671 26.343 50.3398 26.343H58.201C58.6736 26.343 59.127 26.5308 59.4612 26.865C59.7954 27.1992 59.9832 27.6525 59.9832 28.1252V36.1153C59.9832 36.588 59.7954 37.0413 59.4612 37.3755C59.127 37.7097 58.6736 37.8975 58.201 37.8975H50.3404C49.8677 37.8975 49.4144 37.7097 49.0802 37.3755C48.746 37.0413 48.5582 36.588 48.5582 36.1153L48.5576 28.1252Z" fill="#F3E03B"/>
<path d="M0.0166016 28.1252C0.0166016 27.6525 0.204366 27.1992 0.538589 26.865C0.872813 26.5308 1.32612 26.343 1.79878 26.343H9.65937C10.132 26.343 10.5853 26.5308 10.9196 26.865C11.2538 27.1992 11.4416 27.6525 11.4416 28.1252V36.1153C11.4416 36.588 11.2538 37.0413 10.9196 37.3755C10.5853 37.7097 10.132 37.8975 9.65937 37.8975H1.79878C1.32612 37.8975 0.872813 37.7097 0.538589 37.3755C0.204366 37.0413 0.0166016 36.588 0.0166016 36.1153V28.1252Z" fill="#F3E03B"/>
</g>
<defs>
<clipPath id="clip0_104_10954">
<rect width="60" height="60" fill="white"/>
</clipPath>
</defs>
</svg>
