<svg width="120" height="100" viewBox="0 0 120 100" fill="none" xmlns="http://www.w3.org/2000/svg">
<path fill-rule="evenodd" clip-rule="evenodd" d="M102.415 25.2991L105.579 28.4791C105.979 28.8826 106.203 29.4273 106.203 29.9949C106.203 30.5626 105.979 31.1073 105.579 31.5108L103.031 34.0729C103.743 35.4065 104.275 36.8288 104.613 38.3024H107.904C108.467 38.3102 109.005 38.5397 109.401 38.9413C109.797 39.3434 110.021 39.8856 110.023 40.4519V44.9467C110.023 45.5161 109.797 46.0625 109.396 46.4656C109.198 46.665 108.963 46.8233 108.703 46.9313C108.444 47.0393 108.166 47.095 107.885 47.0951H104.291C103.855 48.5427 103.227 49.9257 102.426 51.2078L104.759 53.553C105.16 53.958 105.385 54.5046 105.385 55.0741C105.385 55.6437 105.16 56.1902 104.759 56.5952L101.615 59.7352C101.213 60.1361 100.669 60.3612 100.102 60.3612C99.534 60.3612 98.9896 60.1361 98.5878 59.7352L96.0488 57.1741C94.7196 57.8896 93.3007 58.4241 91.8299 58.7636V62.0805C91.8275 62.6492 91.6013 63.1941 91.2004 63.5973C90.8004 64.0005 90.2572 64.2279 89.6909 64.23H85.2182C84.6513 64.2274 84.1086 64.0003 83.7087 63.5984C83.3087 63.1952 83.0824 62.651 83.0793 62.0805V58.4994C81.6384 58.0584 80.2625 57.4279 78.9876 56.6247L76.6539 58.9699C76.2522 59.3708 75.7078 59.5959 75.1402 59.5959C74.5727 59.5959 74.0283 59.3708 73.6265 58.9699L70.4718 55.8099C70.0724 55.4065 69.8485 54.8618 69.8485 54.2941C69.8485 53.7265 70.0724 53.1817 70.4718 52.7783L73.0107 50.2162C72.3065 48.8834 71.7783 47.4649 71.4391 45.9961H68.137C67.5702 45.9934 67.0274 45.7663 66.6275 45.3646C66.2275 44.9614 66.0012 44.4172 65.998 43.8477V39.3234C65.998 38.7519 66.2233 38.2045 66.6244 37.8003C66.8222 37.5999 67.0576 37.4405 67.3172 37.3314C67.5768 37.2223 67.8554 37.1656 68.137 37.1645H71.7402C72.1722 35.7152 72.7998 34.3316 73.6055 33.0518L71.2718 30.7065C71.0712 30.5073 70.9121 30.2703 70.8037 30.0092C70.6953 29.7481 70.6397 29.4682 70.6402 29.1855C70.6402 28.9028 70.696 28.623 70.8044 28.362C70.9127 28.101 71.0716 27.8639 71.2718 27.6644L74.4265 24.4854C74.8283 24.0846 75.3727 23.8595 75.9402 23.8595C76.5078 23.8595 77.0522 24.0846 77.4539 24.4854L80.0013 27.0465C81.3276 26.331 82.7437 25.7965 84.2119 25.457V22.1496C84.2138 21.581 84.4395 21.0361 84.8403 20.6328C85.2403 20.2296 85.7835 20.0033 86.3498 20.0001H90.8235C91.3901 20.003 91.9324 20.2301 92.332 20.6317C92.732 21.0349 92.9593 21.5801 92.9614 22.1496V25.7707C94.403 26.2095 95.7791 26.8397 97.0531 27.6444L99.3878 25.2991C99.7896 24.8986 100.334 24.6737 100.901 24.6737C101.468 24.6737 102.013 24.8986 102.415 25.2991ZM87.9993 51.0004C90.3863 51.0004 92.6755 50.0522 94.3633 48.3643C96.0512 46.6765 96.9994 44.3873 96.9994 42.0003C96.9994 39.6133 96.0512 37.3241 94.3633 35.6363C92.6755 33.9485 90.3863 33.0002 87.9993 33.0002C85.6123 33.0002 83.3231 33.9485 81.6353 35.6363C79.9474 37.3241 78.9992 39.6133 78.9992 42.0003C78.9992 44.3873 79.9474 46.6765 81.6353 48.3643C83.3231 50.0522 85.6123 51.0004 87.9993 51.0004Z" fill="#F3E03B"/>
<path fill-rule="evenodd" clip-rule="evenodd" d="M3.26216 0H116.738C117.603 0.00315349 118.432 0.349559 119.042 0.963166C119.654 1.57853 119.998 2.41031 120 3.27792V78.8428C119.998 79.7104 119.654 80.5421 119.042 81.1576C118.432 81.7713 117.603 82.1177 116.738 82.1207H3.26216C2.83202 82.1195 2.40637 82.0332 2.0098 81.8666C1.61322 81.7 1.25357 81.4565 0.95161 81.1502C0.33899 80.5313 -0.00321503 79.6947 2.27683e-05 78.8239V3.25687C0.00736843 2.39259 0.354036 1.56581 0.965294 0.954745C1.57484 0.345733 2.40051 0.00252238 3.26216 0ZM12.3243 22.777H20.7623C20.9106 22.7809 21.0544 22.8292 21.1749 22.9157C21.2954 23.0022 21.3871 23.123 21.4381 23.2623C21.4726 23.3551 21.4883 23.4539 21.4844 23.5528V26.3981C21.4817 26.5936 21.4024 26.7802 21.2637 26.918C21.125 27.0557 20.9378 27.1336 20.7423 27.135H12.3243C12.1283 27.1355 11.94 27.0582 11.8008 26.9201C11.6617 26.7819 11.5831 26.5942 11.5822 26.3981V23.5528C11.585 23.3574 11.6642 23.1707 11.8029 23.033C11.9417 22.8952 12.1288 22.8173 12.3243 22.816V22.777ZM12.3243 46.693H41.8562C42.0523 46.6925 42.2405 46.7698 42.3797 46.9079C42.5188 47.0461 42.5975 47.2338 42.5983 47.4299V50.3141C42.5955 50.5096 42.5163 50.6962 42.3776 50.834C42.2389 50.9717 42.0517 51.0496 41.8562 51.051H12.3243C12.1283 51.0515 11.94 50.9742 11.8008 50.8361C11.6617 50.6979 11.5831 50.5102 11.5822 50.3141V47.4299C11.585 47.2344 11.6642 47.0478 11.8029 46.91C11.9417 46.7723 12.1288 46.6944 12.3243 46.693ZM12.3243 34.514H30.6056C30.8026 34.5162 30.9909 34.5958 31.1297 34.7356C31.2686 34.8755 31.3468 35.0643 31.3477 35.2614V38.1456C31.3423 38.3402 31.2622 38.5253 31.1241 38.6625C30.9859 38.7997 30.8002 38.8785 30.6056 38.8824H12.3243C12.1283 38.8827 11.9402 38.8054 11.8011 38.6673C11.6621 38.5292 11.5833 38.3416 11.5822 38.1456V35.2614C11.5822 35.0641 11.6602 34.8748 11.7993 34.7347C11.9383 34.5947 12.127 34.5154 12.3243 34.514ZM12.3243 58.8616H54.5121C54.7083 58.8638 54.8955 58.9437 55.0329 59.0838C55.1702 59.2239 55.2464 59.4128 55.2447 59.6089V62.4932C55.242 62.687 55.1641 62.8723 55.0274 63.0098C54.8907 63.1472 54.7059 63.2262 54.5121 63.23H12.3243C12.1283 63.2306 11.94 63.1533 11.8008 63.0151C11.6617 62.877 11.5831 62.6893 11.5822 62.4932V59.6089C11.5822 59.4116 11.6602 59.2223 11.7993 59.0823C11.9383 58.9423 12.127 58.863 12.3243 58.8616ZM45.2057 86.625H74.7954C74.8733 91.7671 76.9828 96.3798 82.6965 100.001H37.3046C41.9046 96.6545 45.2246 92.6008 45.2057 86.625ZM115.734 11.4327V69.5196C115.734 70.3006 115.425 71.049 114.876 71.6017C114.604 71.8747 114.281 72.0913 113.926 72.2393C113.57 72.3872 113.189 72.4635 112.804 72.4638H7.15798C6.38881 72.4506 5.65582 72.1348 5.11796 71.5848C4.57833 71.0329 4.27641 70.2915 4.2769 69.5196V11.4327H30.8013V15.2307C30.8013 15.7517 31.0066 16.2507 31.3729 16.6191C31.7392 16.9875 32.2361 17.1938 32.754 17.1938H35.733C36.0249 18.5143 36.4877 19.791 37.1098 20.9918L34.8245 23.297C34.4689 23.6642 34.2701 24.1554 34.2701 24.6665C34.2701 25.1777 34.4689 25.6688 34.8245 26.036L37.6667 28.9013C38.031 29.2603 38.522 29.4616 39.0335 29.4616C39.545 29.4616 40.036 29.2603 40.4004 28.9013L42.5004 26.7813C43.6535 27.5036 44.8983 28.0679 46.2015 28.4592V31.7182C46.2015 32.2382 46.4078 32.7371 46.7741 33.1056C47.1394 33.474 47.6373 33.6803 48.1552 33.6803H52.1878C52.4446 33.6803 52.6988 33.6295 52.9358 33.5308C53.1728 33.4322 53.388 33.2877 53.5689 33.1056C53.9358 32.7366 54.1417 32.2374 54.1415 31.7171V28.7739C55.467 28.4721 56.7449 27.99 57.9395 27.3413L60.2342 29.6466C60.5982 30.0031 61.0874 30.2027 61.5969 30.2027C62.1064 30.2027 62.5955 30.0031 62.9595 29.6466L65.8111 26.7813C66.1664 26.4142 66.3651 25.9232 66.3651 25.4123C66.3651 24.9014 66.1664 24.4105 65.8111 24.0434L63.7111 21.9339C64.4316 20.7765 64.9964 19.5293 65.3911 18.2244H68.6333C68.89 18.2242 69.1443 18.1732 69.3813 18.0744C69.6183 17.9756 69.8335 17.8309 70.0143 17.6486C70.3806 17.2802 70.587 16.7823 70.587 16.2612V12.2085C70.5858 11.9422 70.5325 11.6786 70.4301 11.4327H115.734ZM58.2426 11.4327C58.599 12.6229 58.6735 13.8796 58.4603 15.1035C58.2471 16.3274 57.752 17.4849 57.0142 18.4844C56.2776 19.481 55.318 20.2914 54.2121 20.8507C52.5449 21.6939 50.6328 21.9188 48.8155 21.4856C46.9981 21.0524 45.3932 19.989 44.2857 18.4844C43.5479 17.4849 43.0528 16.3274 42.8396 15.1035C42.6263 13.8796 42.7009 12.6229 43.0572 11.4327H58.2426ZM111.134 4.82846C111.521 4.82814 111.899 4.94312 112.22 5.15873C112.542 5.37433 112.791 5.68079 112.938 6.039C113.049 6.30667 113.099 6.59563 113.086 6.88513C113.072 7.17462 112.994 7.45748 112.858 7.71339C112.722 7.96929 112.531 8.1919 112.299 8.36523C112.067 8.53855 111.799 8.6583 111.515 8.71587C111.135 8.79207 110.742 8.75334 110.385 8.60464C110.027 8.45593 109.723 8.20401 109.509 7.88112C109.26 7.50288 109.147 7.05021 109.192 6.59904C109.236 6.14788 109.434 5.72566 109.753 5.4032C109.934 5.2211 110.149 5.07657 110.386 4.97794C110.623 4.8793 110.877 4.8285 111.134 4.82846ZM98.0083 4.82846C98.3954 4.82793 98.7739 4.94281 99.0955 5.15843C99.417 5.37405 99.667 5.68063 99.8135 6.039C99.9613 6.39786 99.9999 6.79235 99.9244 7.17303C99.8489 7.55372 99.6628 7.90366 99.3893 8.17902C99.1166 8.45277 98.7687 8.63934 98.3897 8.71505C98.0108 8.79076 97.6179 8.75221 97.2609 8.60429C96.9639 8.47935 96.7022 8.28343 96.4986 8.03373C96.295 7.78404 96.1559 7.48819 96.0933 7.17216C96.0307 6.85613 96.0467 6.52957 96.1398 6.22115C96.2329 5.91272 96.4002 5.63186 96.6272 5.4032C96.8081 5.2211 97.0233 5.07657 97.2603 4.97794C97.4973 4.8793 97.7515 4.8285 98.0083 4.82846ZM104.571 4.82846C104.958 4.82814 105.337 4.94312 105.658 5.15873C105.979 5.37433 106.229 5.68079 106.376 6.039C106.523 6.39767 106.562 6.79182 106.486 7.17222C106.411 7.55263 106.225 7.90243 105.953 8.17797C105.68 8.45165 105.332 8.63825 104.953 8.71414C104.574 8.79003 104.181 8.7518 103.824 8.60429C103.466 8.45542 103.16 8.20358 102.945 7.88068C102.731 7.55778 102.617 7.17838 102.618 6.79059C102.618 6.27058 102.824 5.77163 103.19 5.4032C103.371 5.2211 103.587 5.07657 103.824 4.97794C104.061 4.8793 104.315 4.8285 104.571 4.82846Z" fill="#DBDBDB"/>
</svg>
