<svg width="49" height="49" fill="none" xmlns="http://www.w3.org/2000/svg"><g clip-path="url(#clip0_106_11015)"><path fill-rule="evenodd" clip-rule="evenodd" d="M21.67 0a20.72 20.72 0 0110.756 3.014 21.214 21.214 0 017.722 8.196 21.688 21.688 0 012.508 11.065 21.639 21.639 0 01-3.414 10.812l9.09 10.081L42.066 49 33.3 39.17a20.772 20.772 0 01-9.098 3.423 20.655 20.655 0 01-9.638-1.103 20.969 20.969 0 01-8.124-5.396 21.466 21.466 0 01-4.875-8.535 21.743 21.743 0 01-.586-9.855 21.574 21.574 0 013.827-9.072 21.097 21.097 0 017.425-6.353A20.7 20.7 0 0121.67 0zm13.19 7.945A18.52 18.52 0 0023.49 2.49 18.405 18.405 0 0011.3 5.615 18.966 18.966 0 003.825 15.9a19.308 19.308 0 00.631 12.778c1.657 4.058 4.643 7.404 8.452 9.471a18.369 18.369 0 0012.436 1.864 18.6 18.6 0 0010.775-6.588 19.2 19.2 0 004.223-12.051 19.222 19.222 0 00-1.423-7.273 18.95 18.95 0 00-4.06-6.157z" fill="#555"/><path d="M14.04 30.3v-7.467h-3.563V30.3c0 .09.036.176.1.24a.33.33 0 00.236.102h2.89c.09 0 .174-.037.237-.101a.35.35 0 00.1-.241zm4.093-16.731l-7.664 6.824h4.26l3.423-3.08L21.05 20.6c1.72 1.746 2.538 1.714 4.254-.032 1.344-1.375 4.55-4.46 5.91-5.86l1.903 1.961v-5.98l-5.804.053 1.958 1.993-6.121 6.259c-1.676-1.69-3.328-3.736-5.017-5.426zM31.538 30.3V18.575l-.012-.02a2.365 2.365 0 01-.349-.31l-1.358 1.347-1.853 1.822V30.3a.345.345 0 00.333.343h2.902a.34.34 0 00.237-.102.35.35 0 00.1-.241zm-5.843 0v-6.813a4.36 4.36 0 01-1.703.756 4.322 4.322 0 01-1.857-.026V30.3a.347.347 0 00.205.315c.04.018.084.027.128.028h2.894a.335.335 0 00.236-.103.346.346 0 00.097-.24z" fill="#F3E03B"/><path d="M19.872 22.946v-.013l.008.02-.008-.007V30.3a.347.347 0 01-.208.316.335.335 0 01-.13.026h-2.897a.338.338 0 01-.237-.101.35.35 0 01-.1-.241v-7.973c.06-.045.117-.092.172-.143l1.45-1.308 1.174 1.323.09.096c.22.225.45.442.686.65z" fill="#F3E03B"/></g><defs><clipPath id="clip0_106_11015"><path fill="#fff" d="M0 0h49v49H0z"/></clipPath></defs></svg>