<svg width="40" height="42" fill="none" xmlns="http://www.w3.org/2000/svg"><g clip-path="url(#clip0_34_137)"><path d="M40.127-.109v42.242H-.003V-.11h40.13z" fill="#000"/><path d="M.014 6.96L19.734 0l20.253 6.837-3.28 25.85L19.736 42 3.028 32.81.013 6.96h.001z" fill="#212121"/><path d="M39.987 6.837L19.735 0v41.999l16.97-9.296 3.28-25.866h.002z" fill="#4C4C4C"/><path d="M19.765 4.903L7.477 31.991l4.59-.077 2.467-6.112h11.024l2.701 6.189 4.387.077L19.765 4.903zm.031 8.679l4.154 8.601h-7.808l3.654-8.601z" fill="#FBFBFB"/></g><defs><clipPath id="clip0_34_137"><path fill="#fff" d="M0 0h40v42H0z"/></clipPath></defs></svg>