<svg width="60" height="47" fill="none" xmlns="http://www.w3.org/2000/svg"><g clip-path="url(#clip0_104_10963)" fill-rule="evenodd" clip-rule="evenodd"><path d="M27.207 8.302l-.336.03c-2.744.263-5.41 1.265-7.613 2.98-2.55 1.978-4.484 4.94-5.23 8.862l-.234 1.226-1.218.215c-1.194.21-2.261.498-3.197.865a10.67 10.67 0 00-2.422 1.3 8.042 8.042 0 00-1.467 1.367c-1.282 1.54-1.877 3.469-1.862 5.423a9.821 9.821 0 001.847 5.633 9.19 9.19 0 001.54 1.661l.015.01-1.306 3.483c-.346-.23-.683-.479-.994-.742a12.605 12.605 0 01-2.145-2.306 13.392 13.392 0 01-2.529-7.73c-.02-2.764.838-5.515 2.69-7.743.62-.744 1.33-1.407 2.115-1.973.94-.684 2.018-1.26 3.236-1.735a19.54 19.54 0 012.68-.82c1.073-4.27 3.359-7.558 6.298-9.84 2.748-2.134 6.058-3.38 9.465-3.708a18.641 18.641 0 013.133-.043c-.227.12-.444.259-.648.415l-.015.01a4.679 4.679 0 00-1.793 3.077l-.01.083zm-5.78 35.971h-5.781L14.818 47h-5.21l6.215-16.547h5.585L27.598 47h-5.342l-.828-2.727zm-1.082-3.585l-1.803-5.946-1.809 5.946h3.612zm8.846-10.235h8.485c1.847 0 3.236.44 4.152 1.32.916.878 1.38 2.139 1.38 3.766 0 1.67-.507 2.98-1.507 3.923-1.003.942-2.539 1.411-4.596 1.411h-2.797V47h-5.117V30.453zm5.117 7.07h1.257c.99 0 1.687-.172 2.086-.519.4-.342.6-.781.6-1.32a1.84 1.84 0 00-.522-1.318c-.346-.361-.999-.543-1.959-.543h-1.462v3.7zm10.96-7.07h5.118V47H45.27V30.453zm9.378-13.361c.535.418 1.035.879 1.496 1.377.545.592 1.04 1.23 1.477 1.905 1.56 2.404 2.358 5.613 2.324 8.755-.034 3.083-.862 6.15-2.558 8.408-.41.543-.864 1.053-1.355 1.524v-7.113c.21-.914.317-1.876.326-2.848.03-2.477-.574-4.964-1.75-6.771a10.26 10.26 0 00-1.095-1.413 8.937 8.937 0 00-1-.928 4.685 4.685 0 00.117-1.358 4.512 4.512 0 001.101-.62l.016-.01a4.83 4.83 0 00.9-.908z" fill="#DBDBDB"/><path d="M47.731 2.645l1.58 1.587a1.075 1.075 0 010 1.513l-1.273 1.278a8.51 8.51 0 01.79 2.111h1.642c.282.004.55.118.748.319.197.2.308.471.31.754v2.243a1.072 1.072 0 01-1.067 1.072h-1.794a8.487 8.487 0 01-.93 2.052l1.164 1.17a1.08 1.08 0 010 1.52l-1.57 1.566a1.07 1.07 0 01-1.51 0l-1.267-1.278a8.454 8.454 0 01-2.106.793v1.656a1.08 1.08 0 01-.314.757c-.2.2-.47.314-.753.316h-2.233A1.07 1.07 0 0138.082 21v-1.788a8.496 8.496 0 01-2.042-.935l-1.165 1.17a1.07 1.07 0 01-1.511 0l-1.574-1.576a1.075 1.075 0 010-1.513l1.267-1.279a8.7 8.7 0 01-.785-2.106h-1.647a1.07 1.07 0 01-.753-.316 1.08 1.08 0 01-.314-.756V9.643a1.078 1.078 0 011.067-1.078h1.798a8.309 8.309 0 01.93-2.052l-1.164-1.17a1.068 1.068 0 010-1.52l1.575-1.586a1.07 1.07 0 011.51 0l1.272 1.279a8.423 8.423 0 012.101-.794v-1.65A1.07 1.07 0 0139.715 0h2.232a1.08 1.08 0 011.067 1.073V2.88c.72.219 1.406.534 2.042.935l1.165-1.17a1.069 1.069 0 011.51 0zM40.537 15.47a4.491 4.491 0 10.1-8.983 4.491 4.491 0 00-.1 8.983z" fill="#F3E03B"/></g><defs><clipPath id="clip0_104_10963"><path fill="#fff" d="M0 0h60v47H0z"/></clipPath></defs></svg>