<svg width="65" height="54" fill="none" xmlns="http://www.w3.org/2000/svg"><path fill-rule="evenodd" clip-rule="evenodd" d="M55.304 13.661l1.708 1.717a1.163 1.163 0 010 1.637L55.636 18.4c.385.72.672 1.488.855 2.284h1.776a1.166 1.166 0 011.144 1.16v2.428a1.163 1.163 0 01-.712 1.072c-.14.058-.29.088-.442.088h-1.94a9.199 9.199 0 01-1.008 2.22l1.26 1.267a1.168 1.168 0 010 1.643l-1.697 1.696a1.158 1.158 0 01-1.635 0l-1.371-1.383a9.148 9.148 0 01-2.278.858v1.791a1.169 1.169 0 01-.34.82c-.216.217-.51.34-.815.34h-2.416a1.157 1.157 0 01-.815-.34 1.172 1.172 0 01-.34-.82V31.59a9.191 9.191 0 01-2.209-1.012l-1.26 1.266a1.157 1.157 0 01-1.635 0l-1.704-1.706a1.163 1.163 0 010-1.637l1.371-1.384a9.411 9.411 0 01-.848-2.279h-1.783a1.158 1.158 0 01-.815-.34 1.172 1.172 0 01-.34-.82v-2.443a1.167 1.167 0 011.155-1.166h1.945a8.986 8.986 0 011.008-2.22l-1.26-1.267a1.156 1.156 0 010-1.643l1.703-1.716a1.158 1.158 0 011.635 0l1.375 1.383a9.112 9.112 0 012.274-.859V11.96c.001-.307.123-.6.34-.819.215-.217.509-.34.815-.341h2.415a1.157 1.157 0 011.155 1.16v1.956a9.094 9.094 0 012.21 1.012l1.26-1.267a1.158 1.158 0 011.635 0zM47.519 27.54a4.86 4.86 0 100-9.72 4.86 4.86 0 000 9.72z" fill="#F3E03B"/><path fill-rule="evenodd" clip-rule="evenodd" d="M1.762 0h61.276c.467.002.915.189 1.244.52.33.332.516.782.517 1.25v40.805a1.78 1.78 0 01-.517 1.25c-.33.331-.777.518-1.244.52H1.762a1.759 1.759 0 01-1.248-.524A1.776 1.776 0 010 42.565V1.759A1.78 1.78 0 01.521.516C.851.186 1.296 0 1.761 0zm4.893 12.3h4.556a.4.4 0 01.39.418v1.537a.404.404 0 01-.4.398H6.655a.4.4 0 01-.4-.398v-1.537a.404.404 0 01.4-.398v-.02zm0 12.914h15.947a.4.4 0 01.4.398v1.557a.404.404 0 01-.4.398H6.655a.4.4 0 01-.4-.398v-1.557a.404.404 0 01.4-.398zm0-6.577h9.872a.405.405 0 01.4.404v1.557a.41.41 0 01-.4.398H6.655a.4.4 0 01-.4-.398v-1.557a.404.404 0 01.4-.404zm0 13.148h22.781a.4.4 0 01.396.403v1.558a.404.404 0 01-.396.398H6.656a.4.4 0 01-.402-.398v-1.558a.404.404 0 01.401-.403zm17.756 14.992h15.978c.042 2.777 1.181 5.268 4.266 7.223h-24.51c2.484-1.807 4.276-3.996 4.266-7.223zM62.496 6.174V37.54a1.594 1.594 0 01-.977 1.469c-.191.08-.397.12-.605.121H3.865a1.578 1.578 0 01-1.101-.474 1.594 1.594 0 01-.454-1.116V6.174h14.323v2.05c0 .282.11.551.308.75.198.2.466.31.746.31h1.609a8.35 8.35 0 00.743 2.051l-1.234 1.245a1.063 1.063 0 000 1.48l1.535 1.547a1.052 1.052 0 001.476 0l1.134-1.145c.623.39 1.295.695 1.999.906v1.76c0 .28.111.55.309.749.197.199.466.31.746.31h2.177a1.053 1.053 0 00.746-.31c.198-.2.31-.469.31-.75v-1.59a8.037 8.037 0 002.05-.773l1.24 1.245a1.051 1.051 0 001.47 0l1.54-1.547a1.063 1.063 0 000-1.479l-1.133-1.139a8.384 8.384 0 00.907-2.003h1.75a1.052 1.052 0 00.746-.31c.198-.2.31-.469.31-.75V6.593a1.121 1.121 0 00-.085-.42h24.464zm-31.045 0a4.324 4.324 0 01-.664 3.807 4.265 4.265 0 01-6.873 0 4.322 4.322 0 01-.663-3.807h8.2zm28.56-3.567a1.051 1.051 0 01.975.654 1.06 1.06 0 01-1.379 1.385 1.05 1.05 0 01-.472-.39 1.067 1.067 0 01.473-1.568c.128-.053.265-.08.404-.08zm-7.087 0a1.051 1.051 0 01.975.654 1.064 1.064 0 01-.769 1.445 1.053 1.053 0 01-1.24-.833 1.064 1.064 0 01.63-1.185c.128-.053.265-.08.404-.08zm3.544 0a1.052 1.052 0 01.974.654 1.066 1.066 0 01-.228 1.155 1.055 1.055 0 01-1.8-.75 1.063 1.063 0 01.65-.978c.128-.053.266-.08.404-.08z" fill="#555"/></svg>