<svg width="49" height="49" fill="none" xmlns="http://www.w3.org/2000/svg"><g clip-path="url(#clip0_106_11022)"><path fill-rule="evenodd" clip-rule="evenodd" d="M1.237 36.273h4.57a.88.88 0 01-.241-.606V11.082a.87.87 0 01.858-.874H42.35a.87.87 0 01.859.874v24.585a.88.88 0 01-.242.606h4.796a1.225 1.225 0 01.875.369 1.27 1.27 0 01-.4 2.053c-.15.063-.312.096-.475.097H1.237a1.226 1.226 0 01-.875-.37 1.277 1.277 0 010-1.78 1.225 1.225 0 01.875-.37zm31.206-8.402a.518.518 0 01.622-.395.53.53 0 01.388.634l-1.014 4.416a.527.527 0 01-.23.328.51.51 0 01-.716-.169.534.534 0 01-.064-.398l1.014-4.416zM9.359 18.275a.615.615 0 01-.61-.62c0-.342.273-.62.61-.62h15.356c.336 0 .609.278.609.62 0 .343-.273.62-.609.62H9.36zm0 3.952a.616.616 0 01-.61-.62c0-.343.273-.621.61-.621h14.218c.336 0 .609.277.609.62a.616.616 0 01-.609.621H9.36zm0 7.903a.615.615 0 01-.61-.621c0-.343.273-.62.61-.62h10.013c.336 0 .61.277.61.62 0 .343-.274.62-.61.62H9.359zm0-3.952a.603.603 0 01-.431-.182.626.626 0 010-.877.603.603 0 01.43-.181h11.004c.16 0 .316.065.43.181a.625.625 0 010 .877.604.604 0 01-.43.182H9.359zm21.355 5.205a.535.535 0 01.05.743.513.513 0 01-.73.05l-1.774-1.58a.534.534 0 01-.049-.744l.05-.052 1.772-1.579a.51.51 0 01.73.05.535.535 0 01-.049.743l-1.328 1.184 1.329 1.185zm4.255.793a.512.512 0 01-.73-.05.535.535 0 01.048-.743l1.329-1.184-1.329-1.184a.535.535 0 01.11-.87.51.51 0 01.572.076l1.77 1.58.052.05a.534.534 0 01-.05.744l-1.773 1.58zm6.894-18.336H7.033v21.372h34.83V13.84zm-30.602-2.224a.52.52 0 01.517.526.52.52 0 01-.517.526.522.522 0 01-.517-.526c0-.29.232-.526.517-.526zm-1.806 0a.52.52 0 01.516.526.52.52 0 01-.516.526.522.522 0 01-.518-.526c0-.29.232-.526.518-.526zm-1.807 0a.52.52 0 01.517.526c0 .29-.231.526-.517.526a.521.521 0 01-.516-.526c0-.29.23-.526.516-.526zM23.09 36.893h2.82c.263 0 .48.22.48.489s-.217.489-.48.489h-2.82a.487.487 0 01-.48-.49c0-.268.216-.488.48-.488z" fill="#555"/><path d="M31.416 16.782c-.21.343-.322.738-.321 1.14 0 1.195.952 2.164 2.125 2.164s2.125-.97 2.125-2.164a2.17 2.17 0 00-.32-1.14h-3.609z" fill="#F3E03B"/><path d="M39.353 18.457v-.906c0-.411-.32-.75-.72-.77h-2.568c.14.392.2.808.179 1.223.004.053.005.107.005.16 0 1.712-1.364 3.1-3.046 3.1-1.681 0-3.044-1.388-3.044-3.1 0-.053.001-.107.004-.16a3.14 3.14 0 01.179-1.223h-2.534a.768.768 0 00-.721.77v.906c0 .424.34.77.757.77h.74c.1.446.26.876.48 1.277l-.496.504a.784.784 0 000 1.09l.63.64a.75.75 0 001.07 0l.458-.466c.4.25.836.439 1.292.558v.646c0 .424.341.77.757.77h.89a.767.767 0 00.758-.77v-.654a4.653 4.653 0 001.278-.564l.47.48a.75.75 0 001.07 0l.63-.641a.783.783 0 000-1.09l-.516-.525c.212-.394.37-.816.467-1.255h.775a.766.766 0 00.756-.77z" fill="#F3E03B"/></g><defs><clipPath id="clip0_106_11022"><path fill="#fff" d="M0 0h49v49H0z"/></clipPath></defs></svg>