<svg width="65" height="60" fill="none" xmlns="http://www.w3.org/2000/svg"><g clip-path="url(#clip0_104_10959)"><path fill-rule="evenodd" clip-rule="evenodd" d="M53.733 8.016l4.665 4.686a3.191 3.191 0 010 4.485l-3.755 3.772a25.35 25.35 0 012.332 6.243h4.867c1.735 0 3.158 1.43 3.158 3.172V37c0 1.743-1.423 3.172-3.158 3.172h-5.311a25.158 25.158 0 01-2.75 6.068l3.443 3.459a3.192 3.192 0 010 4.484L52.56 58.87a3.157 3.157 0 01-4.465 0l-3.66-3.682v-8.209a18.53 18.53 0 006.511-14.128c0-10.233-8.262-18.532-18.45-18.532-10.188 0-18.45 8.299-18.45 18.532a18.515 18.515 0 005.421 13.118l-.301 8.257-3.444 3.459a3.157 3.157 0 01-4.464 0L6.59 52.998a3.191 3.191 0 010-4.485l3.756-3.772a25.14 25.14 0 01-2.333-6.243H3.147C1.423 38.493 0 37.064 0 35.321v-6.62c0-1.743 1.423-3.172 3.158-3.172h5.311a25.16 25.16 0 012.75-6.068l-3.443-3.46a3.192 3.192 0 010-4.483L12.44 6.83a3.157 3.157 0 014.465 0l3.756 3.772a24.891 24.891 0 016.216-2.342V3.372c0-1.737 1.421-3.166 3.157-3.166h6.597c1.734 0 3.157 1.428 3.157 3.172v5.328a24.944 24.944 0 016.04 2.764l3.444-3.459a3.156 3.156 0 014.46.005z" fill="#DBDBDB"/><path d="M23.396 39.801c-2.296-3.04-4.121-6.45-2.223-11.456 1.228-3.246 4.063-5.908 7.634-7.395-5.834 12.932 10.918 17.565 11.42 2.247 5.607 4.676 5.56 11.572 1.45 17.146-1.942 2.635-2.465 4.117-2.889 5.632-.243.829-.29 1.663-.29 2.715-.006 1.429.058 6.636.137 10.988H34.82V48.323c0-2.056-3.094-2.056-3.094 0v11.355h-3.508c-.079-4.075-.164-8.99-.253-10.282-.08-1.328-.212-2.215-.54-3.055-.576-1.519-1.306-2.895-4.03-6.493v-.047z" fill="#F3E03B"/></g><defs><clipPath id="clip0_104_10959"><path fill="#fff" d="M0 0h65v60H0z"/></clipPath></defs></svg>