<svg width="40" height="40" fill="none" xmlns="http://www.w3.org/2000/svg"><g clip-path="url(#clip0_35_146)"><path d="M0 0h40v40H0V0zm20.257 26.753c-3.762.095-3.366-2.377-3.366-2.377s13.735-4.7 9.99-13.985C25.198 8 23.242 7.25 20.474 7.306c-2.769.054-6.178 1.742-8.404 6.738-1.062 2.385-1.423 4.643-1.64 6.355 0 0-2.432.488-3.735-.595-1.303-1.085-1.988 0-1.988 0s-2.243 2.625-.016 3.494c2.227.87 5.693 1.045 5.693 1.045h-.001c.319 2.312 1.104 4.535 3.959 6.391 4.786 3.114 11.889-.175 11.889-.175 4.256-1.779 7.084-4.533 8.289-5.875a1.105 1.105 0 00-.028-1.507l-1.387-1.44a1.105 1.105 0 00-1.5-.09c-1.851 1.517-6.718 5.106-11.348 5.106zm-4.018-6.57c.163-6.46 4.398-9.284 5.864-7.87 1.467 1.41.923 4.45-1.846 6.35-2.768 1.9-4.018 1.52-4.018 1.52z" fill="#121212"/></g><defs><clipPath id="clip0_35_146"><path fill="#fff" d="M0 0h40v40H0z"/></clipPath></defs></svg>