<svg width="95" height="56" fill="none" xmlns="http://www.w3.org/2000/svg"><path fill-rule="evenodd" clip-rule="evenodd" d="M2.398 50.533h8.862a1.706 1.706 0 01-.47-1.174V1.694c0-.93.75-1.694 1.665-1.694h69.65c.916 0 1.665.763 1.665 1.694V49.36c0 .455-.18.868-.47 1.174h9.3a2.374 2.374 0 011.696.715 2.466 2.466 0 010 3.451 2.377 2.377 0 01-1.696.718H2.399A2.375 2.375 0 01.702 54.7a2.475 2.475 0 010-3.45 2.375 2.375 0 011.696-.716zM62.9 34.243a1.004 1.004 0 011.205-.764c.541.128.877.678.752 1.229l-1.965 8.562a1.02 1.02 0 01-.448.636.989.989 0 01-1.116-.037 1.012 1.012 0 01-.406-.665 1.039 1.039 0 01.013-.399l1.965-8.562zM18.144 15.64a1.192 1.192 0 01-1.182-1.203c0-.663.53-1.203 1.182-1.203h29.773c.651 0 1.18.54 1.18 1.204a1.19 1.19 0 01-1.18 1.202H18.144zm0 7.662c-.653 0-1.182-.54-1.182-1.203 0-.665.53-1.204 1.182-1.204H45.71c.652 0 1.18.539 1.18 1.204 0 .662-.528 1.203-1.179 1.203H18.144zm0 15.321a1.192 1.192 0 01-1.182-1.203c0-.665.53-1.204 1.182-1.204h19.414c.651 0 1.182.539 1.182 1.204 0 .665-.53 1.203-1.182 1.203H18.144zm0-7.662a1.17 1.17 0 01-.835-.352 1.214 1.214 0 010-1.7 1.17 1.17 0 01.835-.352h21.333c.312 0 .613.127.834.352a1.212 1.212 0 010 1.7 1.17 1.17 0 01-.834.352H18.144zm41.404 10.093a1.037 1.037 0 01.096 1.44.993.993 0 01-1.416.097l-3.438-3.066a1.036 1.036 0 01-.095-1.44l.098-.1 3.435-3.062a.99.99 0 011.416.096 1.037 1.037 0 01-.096 1.441l-2.575 2.296 2.575 2.297zm8.248 1.536a.994.994 0 01-1.415-.096 1.037 1.037 0 01.095-1.44l2.575-2.297-2.576-2.296a1.037 1.037 0 01-.094-1.44.989.989 0 011.415-.098l3.434 3.061.1.1c.364.423.32 1.07-.097 1.441l-3.437 3.065zM81.163 7.04H13.635v41.436h67.528V7.04zm-59.33-4.31a1.01 1.01 0 011.002 1.02 1.01 1.01 0 01-1.002 1.02 1.012 1.012 0 01-1.002-1.02c0-.563.45-1.02 1.002-1.02zm-3.502 0c.554 0 1 .457 1 1.02a1.01 1.01 0 01-1 1.02 1.012 1.012 0 01-1.004-1.02c0-.563.45-1.02 1.004-1.02zm-3.503 0c.553 0 1.002.457 1.002 1.02 0 .562-.449 1.02-1.002 1.02a1.01 1.01 0 01-1.001-1.02c0-.563.446-1.02 1.001-1.02zm29.939 49.006h5.465c.512 0 .932.427.932.948 0 .522-.42.949-.932.949h-5.465a.944.944 0 01-.932-.949c0-.52.42-.948.931-.948z" fill="#555"/><path d="M60.91 12.744a4.223 4.223 0 00-.624 2.211c0 2.316 1.846 4.194 4.12 4.194 2.275 0 4.12-1.878 4.12-4.194a4.205 4.205 0 00-.622-2.21H60.91z" fill="#F3E03B"/><path d="M76.297 15.992v-1.756c0-.797-.621-1.454-1.397-1.492h-4.978c.271.76.39 1.565.347 2.37.008.104.01.208.01.312 0 3.318-2.645 6.009-5.905 6.009-3.26 0-5.903-2.691-5.903-6.01 0-.103.003-.207.008-.311a6.089 6.089 0 01.347-2.37h-4.913c-.774.038-1.397.695-1.397 1.492v1.757c0 .82.66 1.493 1.467 1.493h1.437a9.39 9.39 0 00.929 2.476l-.961.976a1.52 1.52 0 000 2.114l1.22 1.242c.57.58 1.506.58 2.075 0l.889-.905a9.06 9.06 0 002.505 1.082v1.253c0 .82.66 1.493 1.467 1.493h1.726c.805 0 1.468-.672 1.468-1.493v-1.27a9.024 9.024 0 002.479-1.092l.912.932c.572.58 1.505.58 2.075 0l1.221-1.244c.57-.58.57-1.53 0-2.112l-1.002-1.02a9.43 9.43 0 00.906-2.432h1.502c.808 0 1.466-.673 1.466-1.494z" fill="#F3E03B"/></svg>