<svg width="34" height="34" fill="none" xmlns="http://www.w3.org/2000/svg"><path fill-rule="evenodd" clip-rule="evenodd" d="M17 0C7.611 0 0 7.611 0 17s7.611 17 17 17 17-7.611 17-17S26.389 0 17 0zM8.161 14.08h3.852v11.576H8.161V14.08zm4.107-3.58c-.025-1.136-.837-2-2.155-2-1.318 0-2.18.864-2.18 2 0 1.111.836 2 2.13 2h.024c1.344 0 2.18-.889 2.18-2zm9.204 3.308c2.535 0 4.435 1.655 4.435 5.21v6.638h-3.852v-6.193c0-1.556-.558-2.617-1.952-2.617-1.064 0-1.698.715-1.977 1.406-.102.248-.127.593-.127.939v6.465h-3.853s.051-10.49 0-11.576H18v1.64c.51-.788 1.426-1.912 3.472-1.912z" fill="#fff"/></svg>