<svg width="34" height="34" fill="none" xmlns="http://www.w3.org/2000/svg"><path fill-rule="evenodd" clip-rule="evenodd" d="M17 34C7.611 34 0 26.389 0 17S7.611 0 17 0s17 7.611 17 17-7.611 17-17 17zm.237-17.954c1.392 0 8.16-3.806 8.16-3.806l.01-.68c0-.75-.608-1.36-1.361-1.36H10.428a1.361 1.361 0 00-1.361 1.36v.606s6.842 3.88 8.17 3.88zm-8.16-1.766s6.832 3.636 8.16 3.636c1.456 0 8.16-3.636 8.16-3.636l.01 8.16c0 .75-.608 1.36-1.361 1.36H10.428c-.75 0-1.361-.61-1.361-1.36l.01-8.16z" fill="#fff"/></svg>