<svg width="34" height="34" fill="none" xmlns="http://www.w3.org/2000/svg"><path fill-rule="evenodd" clip-rule="evenodd" d="M17 0C7.611 0 0 7.611 0 17s7.611 17 17 17 17-7.611 17-17S26.389 0 17 0zm-5.108 8.5a.154.154 0 00.13.035c.206-.017.383.032.497.222l.061.098c.237.384.474.768.7 1.162.162.283.318.573.474.862.114.211.229.424.345.634.046.085.103.166.16.247l.094.136c.072.116.142.234.21.35l.01.018c.146.276.14.554-.078.774-.228.234-.473.454-.718.675l-.258.234a22.24 22.24 0 01-.323.29c-.17.15-.34.302-.503.46-.209.2-.262.453-.121.718l.039.073c.2.383.41.762.63 1.136.881 1.469 2.007 2.718 3.43 3.681.548.373 1.119.715 1.694 1.04.543.307.755.256 1.176-.215.223-.247.441-.496.66-.746l.5-.57c.098-.105.204-.202.317-.29.221-.187.464-.208.72-.08l.048.023c.057.027.113.053.162.089.452.323.94.583 1.427.843.241.128.483.257.72.393.244.14.484.287.723.433.137.084.273.167.41.249.203.12.284.295.27.536-.038.679-.15 1.345-.545 1.917a2.613 2.613 0 01-.634.614c-.654.458-1.385.74-2.162.914-.706.158-1.41.101-2.086-.11-1.306-.403-2.594-.865-3.779-1.564a16.577 16.577 0 01-2.959-2.263c-1.147-1.092-2.17-2.282-2.998-3.637-.54-.879-.924-1.826-1.273-2.793-.211-.582-.42-1.16-.513-1.778a4.24 4.24 0 01.19-2.035c.202-.598.454-1.17.833-1.682.299-.397.671-.689 1.154-.819.272-.072.546-.134.82-.195l.346-.079z" fill="#fff"/></svg>