<svg width="42" height="36" fill="none" xmlns="http://www.w3.org/2000/svg"><g clip-path="url(#clip0_94_10882)"><path fill-rule="evenodd" clip-rule="evenodd" d="M19.496 18l-5.43 5.176a.208.208 0 000 .304l.48.457a.234.234 0 00.319 0l6.069-5.785a.21.21 0 000-.304l-6.07-5.785a.234.234 0 00-.319 0l-.479.457a.208.208 0 000 .304L19.496 18z" fill="#222"/></g><g clip-path="url(#clip1_94_10882)"><path fill-rule="evenodd" clip-rule="evenodd" d="M26.496 18l-5.43 5.176a.208.208 0 000 .304l.48.457a.234.234 0 00.319 0l6.069-5.785a.21.21 0 000-.304l-6.07-5.785a.234.234 0 00-.319 0l-.479.457a.208.208 0 000 .304L26.496 18z" fill="#222"/></g><defs><clipPath id="clip0_94_10882"><path fill="#fff" transform="translate(14 12)" d="M0 0h7v12H0z"/></clipPath><clipPath id="clip1_94_10882"><path fill="#fff" transform="translate(21 12)" d="M0 0h7v12H0z"/></clipPath></defs></svg>