<svg width="98" height="169" fill="none" xmlns="http://www.w3.org/2000/svg"><g clip-path="url(#clip0_106_11079)"><mask id="a" style="mask-type:luminance" maskUnits="userSpaceOnUse" x="0" y="0" width="98" height="169"><path d="M98 .142v168.716H0V.142h98z" fill="#fff"/></mask><g mask="url(#a)"><path fill-rule="evenodd" clip-rule="evenodd" d="M18.29 74.885a2.308 2.308 0 01-2.32-2.297c0-1.265 1.04-2.294 2.32-2.294h61.42c1.28 0 2.32 1.03 2.32 2.294 0 1.27-1.04 2.297-2.32 2.297H18.29zm0 13.546c-1.28 0-2.32-1.026-2.32-2.294 0-1.267 1.04-2.297 2.32-2.297h59.153c1.28 0 2.32 1.03 2.32 2.297 0 1.268-1.04 2.294-2.32 2.294H18.29zm0 13.55c-1.28 0-2.32-1.03-2.32-2.297 0-1.268 1.04-2.294 2.32-2.294h50.517c1.28 0 2.32 1.026 2.32 2.294 0 1.267-1.04 2.297-2.32 2.297H18.29zm0 27.096c-1.28 0-2.32-1.03-2.32-2.297 0-1.268 1.04-2.297 2.32-2.297h16.137c1.28 0 2.32 1.029 2.32 2.297 0 1.267-1.04 2.297-2.32 2.297H18.29zm0-13.549c-1.28 0-2.32-1.027-2.32-2.295 0-1.267 1.04-2.297 2.32-2.297h25.667c1.28 0 2.32 1.03 2.32 2.297 0 1.268-1.04 2.295-2.32 2.295H18.29zM18.407.142h61.19C89.76.142 98 8.315 98 18.372v132.259c0 10.064-8.24 18.227-18.403 18.227h-61.19C8.243 168.858 0 160.695 0 150.631V18.349C0 8.262 8.227.142 18.407.142zM6.34 143.538h85.293V18.198H6.34v125.34zm42.637 5.704c4.163 0 7.566 3.32 7.566 7.492 0 4.13-3.35 7.497-7.566 7.497-4.164 0-7.57-3.318-7.57-7.497 0-4.119 3.353-7.492 7.57-7.492zm11.026-20.317a1.93 1.93 0 01.183 2.74c-.71.805-1.95.885-2.763.182l-6.176-5.361a1.928 1.928 0 01-.184-2.736l.2-.195 6.16-5.344a1.964 1.964 0 011.42-.476 1.972 1.972 0 011.344.658 1.928 1.928 0 01-.184 2.736l-4.493 3.898 4.493 3.898zm14.82 2.922a1.978 1.978 0 01-2.763-.182 1.933 1.933 0 01.183-2.74l4.494-3.898-4.494-3.898a1.923 1.923 0 01-.183-2.736 1.955 1.955 0 011.344-.658 1.967 1.967 0 011.42.476l6.163 5.344.196.195a1.929 1.929 0 01.481 1.406 1.918 1.918 0 01-.664 1.33l-6.177 5.361zm-9.056-14.745c.246-1.043 1.303-1.693 2.36-1.452a1.95 1.95 0 011.466 2.337l-3.53 14.965a1.967 1.967 0 01-2.356 1.453 1.968 1.968 0 01-1.223-.866 1.932 1.932 0 01-.247-1.468l3.53-14.969z" fill="#555"/><path d="M41.08 23.92a9.085 9.085 0 00-1.41 4.873c0 5.1 4.18 9.235 9.33 9.235s9.33-4.136 9.33-9.236a9.059 9.059 0 00-1.41-4.872H41.08z" fill="#F3E03B"/><path d="M75.927 31.077v-3.869c0-1.759-1.41-3.205-3.163-3.287H61.49a13.106 13.106 0 01.787 5.222c.013.227.017.455.017.683 0 7.31-5.984 13.239-13.367 13.239-7.383 0-13.367-5.928-13.367-13.24 0-.227.004-.455.017-.683a13.1 13.1 0 01.787-5.222H25.237c-1.757.083-3.167 1.529-3.167 3.288v3.869c0 1.808 1.497 3.29 3.324 3.29h3.256a20.262 20.262 0 002.104 5.453l-2.177 2.152a3.276 3.276 0 000 4.654l2.763 2.737c1.29 1.28 3.407 1.28 4.7 0l2.014-1.994a20.758 20.758 0 005.67 2.39v2.756c0 1.809 1.493 3.291 3.323 3.291h3.907c1.826 0 3.323-1.482 3.323-3.29v-2.797a20.773 20.773 0 005.613-2.403l2.07 2.047a3.355 3.355 0 004.7 0l2.764-2.736a3.282 3.282 0 000-4.655l-2.27-2.248a20.427 20.427 0 002.05-5.357h3.4c1.83 0 3.323-1.481 3.323-3.29z" fill="#F3E03B"/></g></g><defs><clipPath id="clip0_106_11079"><path fill="#fff" d="M0 0h98v169H0z"/></clipPath></defs></svg>