<svg width="26" height="32" fill="none" xmlns="http://www.w3.org/2000/svg"><g clip-path="url(#clip0_92_10782)" fill="#222"><path d="M13 32a.87.87 0 01-.49-.151c-.127-.087-3.147-2.153-6.21-5.45C2.12 21.9 0 17.479 0 13.255 0 5.946 5.832 0 13 0s13 5.946 13 13.254c0 4.224-2.12 8.646-6.3 13.146-3.063 3.296-6.084 5.362-6.21 5.449A.869.869 0 0113 32zm0-30.2C6.805 1.8 1.765 6.938 1.765 13.254c0 7.94 9.013 15.1 11.235 16.745 2.222-1.644 11.235-8.805 11.235-16.745C24.235 6.938 19.195 1.8 13 1.8z"/><path d="M13 18.273c-2.714 0-4.921-2.252-4.921-5.018 0-2.767 2.207-5.018 4.92-5.018 2.715 0 4.923 2.25 4.923 5.018 0 2.766-2.208 5.018-4.922 5.018zm0-8.237c-1.74 0-3.156 1.444-3.156 3.218 0 1.775 1.416 3.219 3.156 3.219 1.74 0 3.157-1.444 3.157-3.219 0-1.774-1.416-3.218-3.157-3.218z"/></g><defs><clipPath id="clip0_92_10782"><path fill="#fff" d="M0 0h26v32H0z"/></clipPath></defs></svg>