<svg width="123" height="87" fill="none" xmlns="http://www.w3.org/2000/svg"><g clip-path="url(#clip0_106_11088)"><mask id="a" style="mask-type:luminance" maskUnits="userSpaceOnUse" x="0" y="0" width="124" height="87"><path d="M123.001.115v86.771H0V.115h123.001z" fill="#fff"/></mask><g mask="url(#a)"><path fill-rule="evenodd" clip-rule="evenodd" d="M41.158 30.596v53.183a1.849 1.849 0 01-1.841 1.843H1.843A1.85 1.85 0 010 83.779V30.596c0-1.012.83-1.842 1.843-1.842h37.469c1.017 0 1.846.829 1.846 1.842zm-20.58 48.9a2.112 2.112 0 110 4.224 2.112 2.112 0 010-4.224zM38.66 32.04v45.582H2.758V32.041H38.66zm63.981 12.332h15.958c1.214 0 2.322.496 3.112 1.292A4.4 4.4 0 01123 48.776v33.706a4.384 4.384 0 01-1.289 3.112 4.384 4.384 0 01-3.112 1.29h-15.958a4.379 4.379 0 01-3.112-1.29 4.386 4.386 0 01-1.29-3.112V48.77c0-1.216.494-2.324 1.29-3.114a4.374 4.374 0 013.112-1.284zM99.755 80.77h21.722V49.175H99.755V80.77zm10.859 1.377c.996 0 1.81.802 1.81 1.81 0 .997-.802 1.811-1.81 1.811a1.812 1.812 0 01-1.674-1.117 1.812 1.812 0 011.674-2.504zM17.517.115h97.507a2.808 2.808 0 012.803 2.802V34.68h-3.98V6.389a2.49 2.49 0 00-2.481-2.482h-90.2a2.489 2.489 0 00-2.482 2.482v16.194h-3.97V2.918A2.808 2.808 0 0117.517.115zm29.56 60.476h45.522v9.723H47.076V60.59z" fill="#555"/><path d="M79.471 74.182H54.046c.02 5.127-2.856 8.59-6.78 11.44H86.26c-4.916-3.107-6.727-7.04-6.79-11.44z" fill="#F3E03B"/></g></g><defs><clipPath id="clip0_106_11088"><path fill="#fff" d="M0 0h123v87H0z"/></clipPath></defs></svg>