<svg width="49" height="49" fill="none" xmlns="http://www.w3.org/2000/svg"><g clip-path="url(#clip0_106_11033)"><path fill-rule="evenodd" clip-rule="evenodd" d="M1.654 37.892c-.196-4.386 4.863-9.921 11.52-8.027-1.937 2.472-3.13 4.47-3.558 5.982-.627 2.237.886 4.067 3.23 3.549 1.69-.376 3.873-1.735 6.257-3.498 1.729 5.583-2.859 11.35-8.014 11.517.475-1.75 2.444-5.67-.311-3.868-1.933 1.268-5.439 3.25-8.034 2.696-.95-4.954 5.415-10.233 1.553-9.3a14.93 14.93 0 00-2.643.95z" fill="#F3E03B"/><path d="M14.521 23.488C19.372 8.997 32.038-1.045 47.846.096a1.1 1.1 0 011.023 1.077c1.445 16.11-9.224 28.11-23.367 33.7v8.773a1.097 1.097 0 01-.611.985l-6.788 4.2a1.103 1.103 0 01-1.67-.798c-1.52-11.477-3.121-12.028-12.537-15.281L.733 31.655a1.102 1.102 0 01-.67-1.404c.04-.12.101-.234.18-.335l4.487-6.38a1.098 1.098 0 01.95-.47l8.841.418v.005-.001z" fill="#555"/><path fill-rule="evenodd" clip-rule="evenodd" d="M29.678 6.493a25.768 25.768 0 0116.487-4.467.907.907 0 01.842.89c.543 6.053-1.245 11.652-4.456 16.43L29.678 6.492z" fill="#F3E03B"/><path fill-rule="evenodd" clip-rule="evenodd" d="M15.11 27.675c1.985-7.146 6.014-14.069 11.64-18.93l13.576 13.559a38.538 38.538 0 01-18.799 11.764l-3.534-3.514-2.883-2.879z" fill="#F8F8F8"/><path d="M31.163 17.63a3.36 3.36 0 00-5.587 1.388 3.349 3.349 0 001.615 3.934 3.362 3.362 0 004.18-.808 3.35 3.35 0 00-.208-4.513z" fill="#555"/></g><defs><clipPath id="clip0_106_11033"><path fill="#fff" d="M0 0h49v49H0z"/></clipPath></defs></svg>