<svg width="60" height="60" fill="none" xmlns="http://www.w3.org/2000/svg"><g clip-path="url(#clip0_104_10954)"><path fill-rule="evenodd" clip-rule="evenodd" d="M43.856 42.894L39.183 54.88l-17.227-.23-4.765-11.76c4.097-7.35 8.257-16.318 10.396-24.162l2.27.244-.088 21.139a2.192 2.192 0 00-1.372 2.493 2.183 2.183 0 003.633 1.17 2.198 2.198 0 00-.899-3.722l.074-20.942 2.597-.118c1.904 7.909 6.026 16.846 10.054 23.912v-.01zM26.068 0h9.003a1.198 1.198 0 011.202 1.21v2.94h14.199a4.902 4.902 0 012.742-2.905 4.87 4.87 0 015.325 1.063 4.907 4.907 0 010 6.933 4.88 4.88 0 01-5.334 1.068A4.866 4.866 0 0151.62 9.24l-.088-.098a4.843 4.843 0 01-1.07-1.749h-7.324a26.775 26.775 0 016.348 5.15 28.587 28.587 0 016.992 14.494h1.953a1.47 1.47 0 011.465 1.47v6.62a1.473 1.473 0 01-.904 1.358 1.463 1.463 0 01-.56.112h-6.48a1.463 1.463 0 01-1.465-1.47v-6.62a1.476 1.476 0 01.904-1.358c.178-.074.368-.112.56-.112h1.51a25.613 25.613 0 00-6.167-12.456 23.078 23.078 0 00-11.022-6.815v2.587a1.211 1.211 0 01-1.2 1.21h-9.005a1.218 1.218 0 01-1.182-1.21V7.77a23.008 23.008 0 00-11.23 7.095 25.879 25.879 0 00-5.942 12.188h1.465a1.463 1.463 0 011.465 1.47v6.605a1.475 1.475 0 01-.904 1.357 1.463 1.463 0 01-.56.112H2.663a1.462 1.462 0 01-1.035-.43 1.472 1.472 0 01-.43-1.04v-6.62a1.473 1.473 0 01.905-1.358c.177-.074.368-.112.56-.112h2.002A28.952 28.952 0 0111.4 12.872a26.658 26.658 0 016.65-5.463H9.496a4.903 4.903 0 01-1.158 1.837 4.874 4.874 0 01-6.89.01 4.916 4.916 0 010-6.933A4.882 4.882 0 014.903.885a4.868 4.868 0 013.455 1.438c.523.519.92 1.15 1.162 1.847h15.366V1.23A1.206 1.206 0 0126.068 0zm12.695 60h-16.71v-3.342h16.72V60h-.01z" fill="#DBDBDB"/><path d="M24.582 1.782A1.782 1.782 0 0126.364 0h8.452a1.782 1.782 0 011.782 1.782v8.588a1.782 1.782 0 01-1.782 1.782h-8.452a1.782 1.782 0 01-1.782-1.782V1.782zm23.976 26.343a1.782 1.782 0 011.782-1.782h7.86a1.782 1.782 0 011.782 1.782v7.99a1.782 1.782 0 01-1.782 1.782h-7.86a1.782 1.782 0 01-1.783-1.782v-7.99zm-48.541 0a1.782 1.782 0 011.782-1.782h7.86a1.783 1.783 0 011.783 1.782v7.99a1.782 1.782 0 01-1.783 1.782H1.8a1.782 1.782 0 01-1.782-1.782v-7.99z" fill="#F3E03B"/></g><defs><clipPath id="clip0_104_10954"><path fill="#fff" d="M0 0h60v60H0z"/></clipPath></defs></svg>