<svg width="120" height="100" fill="none" xmlns="http://www.w3.org/2000/svg"><path fill-rule="evenodd" clip-rule="evenodd" d="M102.415 25.3l3.164 3.18a2.153 2.153 0 010 3.03l-2.548 2.563a17.096 17.096 0 011.582 4.23h3.291a2.145 2.145 0 011.497.638c.396.402.62.945.622 1.51v4.496a2.155 2.155 0 01-1.32 1.984 2.127 2.127 0 01-.818.164h-3.594a17.036 17.036 0 01-1.865 4.113l2.333 2.345a2.162 2.162 0 010 3.042l-3.144 3.14a2.143 2.143 0 01-3.027 0l-2.54-2.56a16.938 16.938 0 01-4.218 1.589v3.316a2.164 2.164 0 01-.63 1.517c-.4.404-.943.63-1.51.633h-4.472a2.143 2.143 0 01-1.51-.632 2.17 2.17 0 01-.629-1.517v-3.582a17.022 17.022 0 01-4.091-1.874l-2.334 2.345a2.143 2.143 0 01-3.028 0l-3.154-3.16a2.154 2.154 0 010-3.032l2.539-2.562a17.427 17.427 0 01-1.572-4.22h-3.302a2.145 2.145 0 01-1.51-.631 2.17 2.17 0 01-.629-1.517v-4.525a2.162 2.162 0 011.32-1.992c.259-.109.537-.165.819-.167h3.603a16.643 16.643 0 011.866-4.112l-2.334-2.346a2.138 2.138 0 01-.468-2.344 2.17 2.17 0 01.468-.698l3.154-3.179a2.143 2.143 0 013.028 0L80 27.047a16.876 16.876 0 014.21-1.59V22.15a2.162 2.162 0 01.63-1.517c.4-.403.943-.63 1.509-.633h4.474c.566.003 1.108.23 1.508.632.4.403.627.948.63 1.518v3.62a16.85 16.85 0 014.091 1.874l2.335-2.345a2.144 2.144 0 013.027 0zM87.999 51a9 9 0 100-17.999 9 9 0 000 18z" fill="#F3E03B"/><path fill-rule="evenodd" clip-rule="evenodd" d="M3.262 0h113.476c.865.003 1.694.35 2.304.963.612.616.956 1.447.958 2.315v75.565a3.293 3.293 0 01-.958 2.315c-.61.613-1.439.96-2.304.963H3.262a3.257 3.257 0 01-2.31-.97A3.29 3.29 0 010 78.823V3.257A3.295 3.295 0 01.965.955 3.263 3.263 0 013.262 0zm9.062 22.777h8.438a.741.741 0 01.722.776v2.845a.747.747 0 01-.742.737h-8.418a.74.74 0 01-.742-.737v-2.845a.748.748 0 01.742-.737v-.039zm0 23.916h29.532a.74.74 0 01.742.737v2.884a.748.748 0 01-.742.737H12.324a.74.74 0 01-.742-.737V47.43a.748.748 0 01.742-.737zm0-12.179h18.282a.75.75 0 01.742.747v2.885a.758.758 0 01-.742.736H12.324a.74.74 0 01-.742-.736V35.26a.747.747 0 01.742-.747zm0 24.348h42.188a.741.741 0 01.733.747v2.884a.748.748 0 01-.733.737H12.324a.74.74 0 01-.742-.737V59.61a.747.747 0 01.742-.747zm32.882 27.763h29.59c.077 5.142 2.187 9.755 7.9 13.376h-45.39c4.6-3.347 7.92-7.4 7.9-13.376zm70.528-75.192V69.52a2.936 2.936 0 01-2.93 2.944H7.158a2.924 2.924 0 01-2.04-.88 2.951 2.951 0 01-.841-2.064V11.433H30.8v3.798c0 .52.206 1.02.572 1.388.366.369.863.575 1.381.575h2.979c.292 1.32.755 2.597 1.377 3.798l-2.285 2.305a1.969 1.969 0 000 2.739l2.842 2.865a1.947 1.947 0 002.733 0l2.1-2.12a15.214 15.214 0 003.702 1.678v3.26c0 .52.206 1.018.572 1.387.365.368.863.574 1.381.574h4.033a1.946 1.946 0 001.38-.574 1.97 1.97 0 00.574-1.389v-2.943a14.883 14.883 0 003.797-1.433l2.295 2.306a1.947 1.947 0 002.725 0l2.852-2.866a1.969 1.969 0 000-2.738l-2.1-2.11a15.523 15.523 0 001.68-3.709h3.242a1.948 1.948 0 001.381-.575c.367-.369.573-.867.573-1.388V12.21a2.042 2.042 0 00-.157-.776h45.304zm-57.491 0a8.006 8.006 0 01-1.229 7.051 7.94 7.94 0 01-2.802 2.367 7.9 7.9 0 01-9.926-2.367 8.006 8.006 0 01-1.229-7.051h15.186zm52.891-6.605a1.944 1.944 0 011.804 1.211 1.968 1.968 0 01-1.423 2.677 1.943 1.943 0 01-2.006-.835 1.976 1.976 0 01.244-2.478 1.947 1.947 0 011.381-.575zm-13.126 0a1.948 1.948 0 011.806 1.211 1.971 1.971 0 01-.425 2.14 1.95 1.95 0 01-2.128.425 1.968 1.968 0 010-3.626c.236-.099.49-.15.747-.15zm6.563 0a1.948 1.948 0 011.805 1.211 1.97 1.97 0 01-.423 2.139 1.955 1.955 0 01-3.008-.297 1.97 1.97 0 01.879-2.903c.237-.099.491-.15.747-.15z" fill="#DBDBDB"/></svg>